<mxfile host="app.diagrams.net" modified="2024-01-15T13:15:31.934Z" agent="Mozilla/5.0 (Windows NT 10.0; Win64; x64) AppleWebKit/537.36 (KHTML, like Gecko) Chrome/120.0.0.0 Safari/537.36" etag="i1H8Uo0iTNDpoFEzgjty" version="22.1.18" type="github">
  <diagram name="Pagina-1" id="f1sffyFF8ADrPdIEwUCC">
    <mxGraphModel dx="3247" dy="2985" grid="1" gridSize="10" guides="1" tooltips="1" connect="1" arrows="1" fold="1" page="1" pageScale="1" pageWidth="2336" pageHeight="1654" math="0" shadow="0">
      <root>
        <mxCell id="0" />
        <mxCell id="1" parent="0" />
        <mxCell id="7T8Nrw3sL6te4_rMvr3A-151" value="" style="rounded=0;whiteSpace=wrap;html=1;fillColor=#EDEDED;strokeColor=#000000;" parent="1" vertex="1">
          <mxGeometry x="520" y="-520" width="1730" height="1970" as="geometry" />
        </mxCell>
        <mxCell id="7T8Nrw3sL6te4_rMvr3A-3" value="SW_RST = 1" style="text;html=1;strokeColor=none;fillColor=none;align=center;verticalAlign=middle;whiteSpace=wrap;rounded=0;" parent="1" vertex="1">
          <mxGeometry x="279.97" y="-1235" width="80" height="30" as="geometry" />
        </mxCell>
        <mxCell id="7T8Nrw3sL6te4_rMvr3A-4" value="" style="endArrow=classic;html=1;rounded=0;entryX=0;entryY=0.5;entryDx=0;entryDy=0;" parent="1" target="7T8Nrw3sL6te4_rMvr3A-6" edge="1">
          <mxGeometry width="50" height="50" relative="1" as="geometry">
            <mxPoint x="279.97" y="-1210" as="sourcePoint" />
            <mxPoint x="280.2099999999998" y="-1200.7" as="targetPoint" />
            <Array as="points">
              <mxPoint x="359.97" y="-1210" />
            </Array>
          </mxGeometry>
        </mxCell>
        <mxCell id="7T8Nrw3sL6te4_rMvr3A-5" value="RST_S" style="swimlane;whiteSpace=wrap;html=1;" parent="1" vertex="1">
          <mxGeometry x="439.97" y="-1280" width="120" height="120" as="geometry" />
        </mxCell>
        <mxCell id="7T8Nrw3sL6te4_rMvr3A-6" value="RST = 1&lt;br&gt;RST_CNT = 1&lt;br&gt;RST_reg1 = 1&lt;br&gt;RST_reg5 = 1" style="text;html=1;strokeColor=none;fillColor=none;align=center;verticalAlign=middle;whiteSpace=wrap;rounded=0;" parent="7T8Nrw3sL6te4_rMvr3A-5" vertex="1">
          <mxGeometry y="20" width="120" height="100" as="geometry" />
        </mxCell>
        <mxCell id="7T8Nrw3sL6te4_rMvr3A-9" style="edgeStyle=orthogonalEdgeStyle;rounded=0;orthogonalLoop=1;jettySize=auto;html=1;entryX=0;entryY=0.5;entryDx=0;entryDy=0;" parent="1" source="7T8Nrw3sL6te4_rMvr3A-14" target="7T8Nrw3sL6te4_rMvr3A-20" edge="1">
          <mxGeometry relative="1" as="geometry">
            <Array as="points">
              <mxPoint x="759.97" y="-1199.96" />
              <mxPoint x="759.97" y="-1049.96" />
            </Array>
          </mxGeometry>
        </mxCell>
        <mxCell id="n60EglObh9P4DY1axBTk-12" style="edgeStyle=orthogonalEdgeStyle;rounded=0;orthogonalLoop=1;jettySize=auto;html=1;entryX=0;entryY=0.5;entryDx=0;entryDy=0;" parent="1" source="7T8Nrw3sL6te4_rMvr3A-14" target="n60EglObh9P4DY1axBTk-2" edge="1">
          <mxGeometry relative="1" as="geometry">
            <Array as="points">
              <mxPoint x="749.97" y="-1209.96" />
              <mxPoint x="749.97" y="-1209.96" />
            </Array>
          </mxGeometry>
        </mxCell>
        <mxCell id="n60EglObh9P4DY1axBTk-18" style="edgeStyle=orthogonalEdgeStyle;rounded=0;orthogonalLoop=1;jettySize=auto;html=1;entryX=0;entryY=0.5;entryDx=0;entryDy=0;" parent="1" source="7T8Nrw3sL6te4_rMvr3A-14" target="7T8Nrw3sL6te4_rMvr3A-17" edge="1">
          <mxGeometry relative="1" as="geometry">
            <Array as="points">
              <mxPoint x="759.97" y="-1219.96" />
              <mxPoint x="759.97" y="-1409.96" />
            </Array>
          </mxGeometry>
        </mxCell>
        <mxCell id="7T8Nrw3sL6te4_rMvr3A-14" value="IDLE" style="swimlane;whiteSpace=wrap;html=1;" parent="1" vertex="1">
          <mxGeometry x="599.97" y="-1280" width="120" height="120" as="geometry" />
        </mxCell>
        <mxCell id="7T8Nrw3sL6te4_rMvr3A-15" value="" style="edgeStyle=orthogonalEdgeStyle;rounded=0;orthogonalLoop=1;jettySize=auto;html=1;" parent="1" source="7T8Nrw3sL6te4_rMvr3A-6" edge="1">
          <mxGeometry relative="1" as="geometry">
            <mxPoint x="599.97" y="-1210" as="targetPoint" />
          </mxGeometry>
        </mxCell>
        <mxCell id="7T8Nrw3sL6te4_rMvr3A-16" value="LOAD_0" style="swimlane;whiteSpace=wrap;html=1;" parent="1" vertex="1">
          <mxGeometry x="879.97" y="-1480" width="120" height="120" as="geometry" />
        </mxCell>
        <mxCell id="7T8Nrw3sL6te4_rMvr3A-17" value="LD =&amp;nbsp; 1&lt;br&gt;SB_IN = 0&lt;br&gt;En3 = 1&lt;br&gt;RST_CNT = 1&lt;br&gt;En5 = 1&lt;br&gt;s_crc = 0" style="text;html=1;strokeColor=none;fillColor=none;align=center;verticalAlign=middle;whiteSpace=wrap;rounded=0;" parent="7T8Nrw3sL6te4_rMvr3A-16" vertex="1">
          <mxGeometry y="20" width="120" height="100" as="geometry" />
        </mxCell>
        <mxCell id="7T8Nrw3sL6te4_rMvr3A-18" value="En0 = 1&lt;br&gt;bit_mode = 0" style="text;html=1;strokeColor=none;fillColor=none;align=center;verticalAlign=middle;whiteSpace=wrap;rounded=0;" parent="1" vertex="1">
          <mxGeometry x="779.97" y="-1440" width="80" height="30" as="geometry" />
        </mxCell>
        <mxCell id="7T8Nrw3sL6te4_rMvr3A-19" value="CRC_RST" style="swimlane;whiteSpace=wrap;html=1;" parent="1" vertex="1">
          <mxGeometry x="879.97" y="-1119.96" width="120" height="120" as="geometry" />
        </mxCell>
        <mxCell id="7T8Nrw3sL6te4_rMvr3A-20" value="RST_reg1 = 1&lt;br&gt;s_mux = 1&lt;br&gt;En2_cu = 1&lt;br&gt;RST_reg5 = 1" style="text;html=1;strokeColor=none;fillColor=none;align=center;verticalAlign=middle;whiteSpace=wrap;rounded=0;" parent="7T8Nrw3sL6te4_rMvr3A-19" vertex="1">
          <mxGeometry y="20" width="120" height="100" as="geometry" />
        </mxCell>
        <mxCell id="7T8Nrw3sL6te4_rMvr3A-28" value="RB = 1" style="text;html=1;strokeColor=none;fillColor=none;align=center;verticalAlign=middle;whiteSpace=wrap;rounded=0;" parent="1" vertex="1">
          <mxGeometry x="789.97" y="-1074.96" width="60" height="30" as="geometry" />
        </mxCell>
        <mxCell id="7T8Nrw3sL6te4_rMvr3A-37" value="" style="edgeStyle=orthogonalEdgeStyle;rounded=0;orthogonalLoop=1;jettySize=auto;html=1;" parent="1" source="7T8Nrw3sL6te4_rMvr3A-17" edge="1">
          <mxGeometry relative="1" as="geometry">
            <mxPoint x="1039.97" y="-1410" as="targetPoint" />
          </mxGeometry>
        </mxCell>
        <mxCell id="7T8Nrw3sL6te4_rMvr3A-38" value="SHIFT_0" style="swimlane;whiteSpace=wrap;html=1;" parent="1" vertex="1">
          <mxGeometry x="1199.97" y="-1480" width="120" height="120" as="geometry" />
        </mxCell>
        <mxCell id="7T8Nrw3sL6te4_rMvr3A-39" style="edgeStyle=orthogonalEdgeStyle;rounded=0;orthogonalLoop=1;jettySize=auto;html=1;entryX=0.5;entryY=0;entryDx=0;entryDy=0;" parent="7T8Nrw3sL6te4_rMvr3A-38" source="7T8Nrw3sL6te4_rMvr3A-40" target="7T8Nrw3sL6te4_rMvr3A-38" edge="1">
          <mxGeometry relative="1" as="geometry">
            <Array as="points">
              <mxPoint x="140" y="40" />
              <mxPoint x="140" y="-20" />
              <mxPoint x="60" y="-20" />
            </Array>
          </mxGeometry>
        </mxCell>
        <mxCell id="7T8Nrw3sL6te4_rMvr3A-40" value="SE = 1&lt;br&gt;CE = 1" style="text;html=1;strokeColor=none;fillColor=none;align=center;verticalAlign=middle;whiteSpace=wrap;rounded=0;" parent="7T8Nrw3sL6te4_rMvr3A-38" vertex="1">
          <mxGeometry y="20" width="120" height="100" as="geometry" />
        </mxCell>
        <mxCell id="7T8Nrw3sL6te4_rMvr3A-42" value="CRC_OUT" style="swimlane;whiteSpace=wrap;html=1;" parent="1" vertex="1">
          <mxGeometry x="1400.97" y="-1480" width="120" height="120" as="geometry" />
        </mxCell>
        <mxCell id="7T8Nrw3sL6te4_rMvr3A-43" value="En1 = 1&lt;br&gt;SB_IN = 1&lt;br&gt;En3 = 1" style="text;html=1;strokeColor=none;fillColor=none;align=center;verticalAlign=middle;whiteSpace=wrap;rounded=0;" parent="7T8Nrw3sL6te4_rMvr3A-42" vertex="1">
          <mxGeometry y="20" width="120" height="100" as="geometry" />
        </mxCell>
        <mxCell id="7T8Nrw3sL6te4_rMvr3A-44" value="" style="edgeStyle=orthogonalEdgeStyle;rounded=0;orthogonalLoop=1;jettySize=auto;html=1;" parent="1" source="7T8Nrw3sL6te4_rMvr3A-40" target="7T8Nrw3sL6te4_rMvr3A-43" edge="1">
          <mxGeometry relative="1" as="geometry" />
        </mxCell>
        <mxCell id="7T8Nrw3sL6te4_rMvr3A-45" value="TC = 0" style="text;html=1;strokeColor=none;fillColor=none;align=center;verticalAlign=middle;whiteSpace=wrap;rounded=0;" parent="1" vertex="1">
          <mxGeometry x="1269.97" y="-1519.96" width="60" height="30" as="geometry" />
        </mxCell>
        <mxCell id="7T8Nrw3sL6te4_rMvr3A-46" value="TC = 1" style="text;html=1;strokeColor=none;fillColor=none;align=center;verticalAlign=middle;whiteSpace=wrap;rounded=0;" parent="1" vertex="1">
          <mxGeometry x="1329.97" y="-1430" width="60" height="30" as="geometry" />
        </mxCell>
        <mxCell id="7T8Nrw3sL6te4_rMvr3A-48" style="edgeStyle=orthogonalEdgeStyle;rounded=0;orthogonalLoop=1;jettySize=auto;html=1;entryX=0;entryY=0.5;entryDx=0;entryDy=0;" parent="1" source="7T8Nrw3sL6te4_rMvr3A-43" target="7T8Nrw3sL6te4_rMvr3A-14" edge="1">
          <mxGeometry relative="1" as="geometry">
            <mxPoint x="1409.97" y="-1410" as="targetPoint" />
            <Array as="points">
              <mxPoint x="1559.97" y="-1409.96" />
              <mxPoint x="1559.97" y="-1539.96" />
              <mxPoint x="579.97" y="-1539.96" />
              <mxPoint x="579.97" y="-1219.96" />
            </Array>
          </mxGeometry>
        </mxCell>
        <mxCell id="7T8Nrw3sL6te4_rMvr3A-61" style="edgeStyle=orthogonalEdgeStyle;rounded=0;orthogonalLoop=1;jettySize=auto;html=1;" parent="1" source="7T8Nrw3sL6te4_rMvr3A-20" edge="1">
          <mxGeometry relative="1" as="geometry">
            <mxPoint x="599.97" y="-1199.96" as="targetPoint" />
            <Array as="points">
              <mxPoint x="1039.97" y="-1049.96" />
              <mxPoint x="1039.97" y="-959.96" />
              <mxPoint x="579.97" y="-959.96" />
              <mxPoint x="579.97" y="-1199.96" />
            </Array>
          </mxGeometry>
        </mxCell>
        <mxCell id="7T8Nrw3sL6te4_rMvr3A-62" value="" style="rounded=1;whiteSpace=wrap;html=1;fillColor=#99FFFF;" parent="1" vertex="1">
          <mxGeometry x="159.97000000000003" y="-1600.04" width="200" height="240.04" as="geometry" />
        </mxCell>
        <mxCell id="7T8Nrw3sL6te4_rMvr3A-63" value="&lt;br style=&quot;border-color: var(--border-color);&quot;&gt;VALORI DI DEFAULT&lt;br style=&quot;border-color: var(--border-color);&quot;&gt;&lt;span style=&quot;border-color: var(--border-color);&quot;&gt;RST = 0&lt;/span&gt;&lt;br style=&quot;border-color: var(--border-color);&quot;&gt;&lt;span style=&quot;border-color: var(--border-color);&quot;&gt;RST_reg1 = 0&lt;/span&gt;&lt;br style=&quot;border-color: var(--border-color);&quot;&gt;&lt;span style=&quot;border-color: var(--border-color);&quot;&gt;RST_reg5 = 0&lt;/span&gt;&lt;br style=&quot;border-color: var(--border-color);&quot;&gt;&lt;span style=&quot;border-color: var(--border-color);&quot;&gt;RST_CNT = 0&lt;/span&gt;&lt;br style=&quot;border-color: var(--border-color);&quot;&gt;&lt;span style=&quot;border-color: var(--border-color);&quot;&gt;LD = 0&lt;/span&gt;&lt;br style=&quot;border-color: var(--border-color);&quot;&gt;&lt;span style=&quot;border-color: var(--border-color);&quot;&gt;SE = 0&lt;/span&gt;&lt;br style=&quot;border-color: var(--border-color);&quot;&gt;&lt;span style=&quot;border-color: var(--border-color);&quot;&gt;CE = 0&lt;/span&gt;&lt;br style=&quot;border-color: var(--border-color);&quot;&gt;&lt;span style=&quot;border-color: var(--border-color);&quot;&gt;En1 = 0&lt;/span&gt;&lt;br style=&quot;border-color: var(--border-color);&quot;&gt;&lt;span style=&quot;border-color: var(--border-color);&quot;&gt;En2_cu = 0&lt;/span&gt;&lt;br style=&quot;border-color: var(--border-color);&quot;&gt;&lt;span style=&quot;border-color: var(--border-color);&quot;&gt;En3 = 0&lt;/span&gt;&lt;br style=&quot;border-color: var(--border-color);&quot;&gt;&lt;span style=&quot;border-color: var(--border-color);&quot;&gt;En4 = 0&lt;/span&gt;&lt;br style=&quot;border-color: var(--border-color);&quot;&gt;&lt;span style=&quot;border-color: var(--border-color);&quot;&gt;En5 = 0&lt;/span&gt;&lt;br style=&quot;border-color: var(--border-color);&quot;&gt;&lt;span style=&quot;border-color: var(--border-color);&quot;&gt;SB_IN = 0&lt;/span&gt;&lt;br style=&quot;border-color: var(--border-color);&quot;&gt;&lt;span style=&quot;border-color: var(--border-color);&quot;&gt;s_mux = 0&lt;/span&gt;&lt;br style=&quot;border-color: var(--border-color);&quot;&gt;&lt;span style=&quot;border-color: var(--border-color);&quot;&gt;s_crc = 0&lt;/span&gt;" style="text;html=1;strokeColor=none;fillColor=none;align=center;verticalAlign=middle;whiteSpace=wrap;rounded=0;" parent="1" vertex="1">
          <mxGeometry x="159.97000000000003" y="-1600.04" width="200" height="240.04" as="geometry" />
        </mxCell>
        <mxCell id="7T8Nrw3sL6te4_rMvr3A-65" value="&lt;font style=&quot;font-size: 24px;&quot;&gt;BLOCCO SPI&lt;/font&gt;" style="text;html=1;strokeColor=none;fillColor=none;align=center;verticalAlign=middle;whiteSpace=wrap;rounded=0;" parent="1" vertex="1">
          <mxGeometry x="80" y="-440" width="240" height="40" as="geometry" />
        </mxCell>
        <mxCell id="7T8Nrw3sL6te4_rMvr3A-244" style="edgeStyle=orthogonalEdgeStyle;rounded=0;orthogonalLoop=1;jettySize=auto;html=1;entryX=0;entryY=1;entryDx=0;entryDy=0;" parent="1" source="7T8Nrw3sL6te4_rMvr3A-64" target="7T8Nrw3sL6te4_rMvr3A-233" edge="1">
          <mxGeometry relative="1" as="geometry">
            <Array as="points">
              <mxPoint x="420" y="-160" />
              <mxPoint x="420" y="-140" />
            </Array>
          </mxGeometry>
        </mxCell>
        <mxCell id="7T8Nrw3sL6te4_rMvr3A-64" value="" style="rounded=0;whiteSpace=wrap;html=1;fillColor=#E6FFCC;" parent="1" vertex="1">
          <mxGeometry x="80" y="-400" width="240" height="600" as="geometry" />
        </mxCell>
        <mxCell id="7T8Nrw3sL6te4_rMvr3A-66" value="" style="rounded=0;whiteSpace=wrap;html=1;" parent="1" vertex="1">
          <mxGeometry x="1320" y="-400" width="120" height="120" as="geometry" />
        </mxCell>
        <mxCell id="7T8Nrw3sL6te4_rMvr3A-67" value="&lt;div style=&quot;text-align: justify;&quot;&gt;&lt;span style=&quot;background-color: initial;&quot;&gt;D&lt;span style=&quot;white-space: pre;&quot;&gt;&#x9;&lt;/span&gt;&lt;span style=&quot;white-space: pre;&quot;&gt;&#x9;&lt;/span&gt;&lt;span style=&quot;white-space: pre;&quot;&gt;&#x9;&lt;span style=&quot;white-space: pre;&quot;&gt;&#x9;&lt;/span&gt;&lt;/span&gt;&lt;/span&gt;&lt;span style=&quot;background-color: initial;&quot;&gt;Q&lt;/span&gt;&lt;/div&gt;&lt;div style=&quot;text-align: justify;&quot;&gt;&lt;span style=&quot;font-size: 12px;&quot;&gt;&lt;br&gt;&lt;/span&gt;&lt;/div&gt;&lt;div style=&quot;text-align: justify;&quot;&gt;&lt;span style=&quot;font-size: 12px;&quot;&gt;&lt;br&gt;&lt;/span&gt;&lt;/div&gt;&lt;div style=&quot;text-align: justify;&quot;&gt;&lt;span style=&quot;background-color: initial;&quot;&gt;EN&lt;/span&gt;&lt;/div&gt;&lt;div style=&quot;text-align: justify;&quot;&gt;&lt;span style=&quot;font-size: 12px;&quot;&gt;&lt;br&gt;&lt;/span&gt;&lt;/div&gt;&lt;div style=&quot;text-align: justify;&quot;&gt;&lt;span style=&quot;font-size: 12px;&quot;&gt;&lt;br&gt;&lt;/span&gt;&lt;/div&gt;&lt;div style=&quot;text-align: justify;&quot;&gt;&lt;span style=&quot;background-color: initial;&quot;&gt;RST&lt;/span&gt;&lt;/div&gt;" style="text;html=1;strokeColor=none;fillColor=#66FFFF;align=center;verticalAlign=middle;whiteSpace=wrap;rounded=0;" parent="1" vertex="1">
          <mxGeometry x="1320" y="-400" width="120" height="120" as="geometry" />
        </mxCell>
        <mxCell id="7T8Nrw3sL6te4_rMvr3A-68" value="REGISTRO 0" style="text;html=1;strokeColor=none;fillColor=none;align=center;verticalAlign=middle;whiteSpace=wrap;rounded=0;" parent="1" vertex="1">
          <mxGeometry x="1320" y="-420" width="120" height="20" as="geometry" />
        </mxCell>
        <mxCell id="7T8Nrw3sL6te4_rMvr3A-69" value="" style="triangle;whiteSpace=wrap;html=1;rotation=-90;" parent="1" vertex="1">
          <mxGeometry x="1375" y="-290" width="10" height="10" as="geometry" />
        </mxCell>
        <mxCell id="7T8Nrw3sL6te4_rMvr3A-70" value="" style="rounded=0;whiteSpace=wrap;html=1;" parent="1" vertex="1">
          <mxGeometry x="1320" y="-200" width="120" height="120" as="geometry" />
        </mxCell>
        <mxCell id="7T8Nrw3sL6te4_rMvr3A-71" value="&lt;div style=&quot;text-align: justify;&quot;&gt;&lt;span style=&quot;background-color: initial;&quot;&gt;D&lt;span style=&quot;white-space: pre;&quot;&gt;&#x9;&lt;/span&gt;&lt;span style=&quot;white-space: pre;&quot;&gt;&#x9;&lt;/span&gt;&lt;span style=&quot;white-space: pre;&quot;&gt;&#x9;&lt;span style=&quot;white-space: pre;&quot;&gt;&#x9;&lt;/span&gt;&lt;/span&gt;&lt;/span&gt;&lt;span style=&quot;background-color: initial;&quot;&gt;Q&lt;/span&gt;&lt;/div&gt;&lt;div style=&quot;text-align: justify;&quot;&gt;&lt;span style=&quot;font-size: 12px;&quot;&gt;&lt;br&gt;&lt;/span&gt;&lt;/div&gt;&lt;div style=&quot;text-align: justify;&quot;&gt;&lt;span style=&quot;font-size: 12px;&quot;&gt;&lt;br&gt;&lt;/span&gt;&lt;/div&gt;&lt;div style=&quot;text-align: justify;&quot;&gt;&lt;span style=&quot;background-color: initial;&quot;&gt;EN&lt;/span&gt;&lt;/div&gt;&lt;div style=&quot;text-align: justify;&quot;&gt;&lt;span style=&quot;font-size: 12px;&quot;&gt;&lt;br&gt;&lt;/span&gt;&lt;/div&gt;&lt;div style=&quot;text-align: justify;&quot;&gt;&lt;span style=&quot;font-size: 12px;&quot;&gt;&lt;br&gt;&lt;/span&gt;&lt;/div&gt;&lt;div style=&quot;text-align: justify;&quot;&gt;&lt;span style=&quot;background-color: initial;&quot;&gt;RST&lt;/span&gt;&lt;/div&gt;" style="text;html=1;strokeColor=none;fillColor=#66FFFF;align=center;verticalAlign=middle;whiteSpace=wrap;rounded=0;" parent="1" vertex="1">
          <mxGeometry x="1320" y="-200" width="120" height="120" as="geometry" />
        </mxCell>
        <mxCell id="7T8Nrw3sL6te4_rMvr3A-72" value="REGISTRO 1" style="text;html=1;strokeColor=none;fillColor=none;align=center;verticalAlign=middle;whiteSpace=wrap;rounded=0;" parent="1" vertex="1">
          <mxGeometry x="1320" y="-220" width="120" height="20" as="geometry" />
        </mxCell>
        <mxCell id="7T8Nrw3sL6te4_rMvr3A-73" value="" style="triangle;whiteSpace=wrap;html=1;rotation=-90;" parent="1" vertex="1">
          <mxGeometry x="1375" y="-90" width="10" height="10" as="geometry" />
        </mxCell>
        <mxCell id="7T8Nrw3sL6te4_rMvr3A-74" value="" style="rounded=0;whiteSpace=wrap;html=1;" parent="1" vertex="1">
          <mxGeometry x="1320" width="120" height="120" as="geometry" />
        </mxCell>
        <mxCell id="7T8Nrw3sL6te4_rMvr3A-117" style="edgeStyle=orthogonalEdgeStyle;rounded=0;orthogonalLoop=1;jettySize=auto;html=1;entryX=1;entryY=0;entryDx=0;entryDy=0;" parent="1" source="7T8Nrw3sL6te4_rMvr3A-75" target="7T8Nrw3sL6te4_rMvr3A-104" edge="1">
          <mxGeometry relative="1" as="geometry">
            <Array as="points">
              <mxPoint x="1490" y="60" />
              <mxPoint x="1490" y="60" />
            </Array>
          </mxGeometry>
        </mxCell>
        <mxCell id="7T8Nrw3sL6te4_rMvr3A-75" value="&lt;div style=&quot;text-align: justify;&quot;&gt;&lt;span style=&quot;background-color: initial;&quot;&gt;D&lt;span style=&quot;white-space: pre;&quot;&gt;&#x9;&lt;/span&gt;&lt;span style=&quot;white-space: pre;&quot;&gt;&#x9;&lt;/span&gt;&lt;span style=&quot;white-space: pre;&quot;&gt;&#x9;&lt;span style=&quot;white-space: pre;&quot;&gt;&#x9;&lt;/span&gt;&lt;/span&gt;&lt;/span&gt;&lt;span style=&quot;background-color: initial;&quot;&gt;Q&lt;/span&gt;&lt;/div&gt;&lt;div style=&quot;text-align: justify;&quot;&gt;&lt;span style=&quot;font-size: 12px;&quot;&gt;&lt;br&gt;&lt;/span&gt;&lt;/div&gt;&lt;div style=&quot;text-align: justify;&quot;&gt;&lt;span style=&quot;font-size: 12px;&quot;&gt;&lt;br&gt;&lt;/span&gt;&lt;/div&gt;&lt;div style=&quot;text-align: justify;&quot;&gt;&lt;span style=&quot;background-color: initial;&quot;&gt;EN&lt;/span&gt;&lt;/div&gt;&lt;div style=&quot;text-align: justify;&quot;&gt;&lt;span style=&quot;font-size: 12px;&quot;&gt;&lt;br&gt;&lt;/span&gt;&lt;/div&gt;&lt;div style=&quot;text-align: justify;&quot;&gt;&lt;span style=&quot;font-size: 12px;&quot;&gt;&lt;br&gt;&lt;/span&gt;&lt;/div&gt;&lt;div style=&quot;text-align: justify;&quot;&gt;&lt;span style=&quot;background-color: initial;&quot;&gt;RST&lt;/span&gt;&lt;/div&gt;" style="text;html=1;strokeColor=none;fillColor=#66FFFF;align=center;verticalAlign=middle;whiteSpace=wrap;rounded=0;" parent="1" vertex="1">
          <mxGeometry x="1320" width="120" height="120" as="geometry" />
        </mxCell>
        <mxCell id="7T8Nrw3sL6te4_rMvr3A-76" value="REGISTRO 2" style="text;html=1;strokeColor=none;fillColor=none;align=center;verticalAlign=middle;whiteSpace=wrap;rounded=0;" parent="1" vertex="1">
          <mxGeometry x="1320" y="-20" width="120" height="20" as="geometry" />
        </mxCell>
        <mxCell id="7T8Nrw3sL6te4_rMvr3A-77" value="" style="triangle;whiteSpace=wrap;html=1;rotation=-90;" parent="1" vertex="1">
          <mxGeometry x="1375" y="110" width="10" height="10" as="geometry" />
        </mxCell>
        <mxCell id="7T8Nrw3sL6te4_rMvr3A-78" value="" style="rounded=0;whiteSpace=wrap;html=1;" parent="1" vertex="1">
          <mxGeometry x="1320" y="200" width="120" height="120" as="geometry" />
        </mxCell>
        <mxCell id="7T8Nrw3sL6te4_rMvr3A-116" style="edgeStyle=orthogonalEdgeStyle;rounded=0;orthogonalLoop=1;jettySize=auto;html=1;exitX=1;exitY=0.166;exitDx=0;exitDy=0;exitPerimeter=0;" parent="1" source="7T8Nrw3sL6te4_rMvr3A-79" edge="1">
          <mxGeometry relative="1" as="geometry">
            <mxPoint x="960" y="160" as="targetPoint" />
            <mxPoint x="1560" y="220" as="sourcePoint" />
            <Array as="points">
              <mxPoint x="1520" y="220" />
              <mxPoint x="1520" y="160" />
            </Array>
          </mxGeometry>
        </mxCell>
        <mxCell id="7T8Nrw3sL6te4_rMvr3A-146" style="edgeStyle=orthogonalEdgeStyle;rounded=0;orthogonalLoop=1;jettySize=auto;html=1;entryX=-0.005;entryY=0.437;entryDx=0;entryDy=0;entryPerimeter=0;" parent="1" source="7T8Nrw3sL6te4_rMvr3A-79" target="7T8Nrw3sL6te4_rMvr3A-138" edge="1">
          <mxGeometry relative="1" as="geometry">
            <Array as="points">
              <mxPoint x="1850" y="220" />
              <mxPoint x="1850" y="220" />
            </Array>
          </mxGeometry>
        </mxCell>
        <mxCell id="7T8Nrw3sL6te4_rMvr3A-79" value="&lt;div style=&quot;text-align: justify;&quot;&gt;&lt;span style=&quot;background-color: initial;&quot;&gt;D&lt;span style=&quot;white-space: pre;&quot;&gt;&#x9;&lt;/span&gt;&lt;span style=&quot;white-space: pre;&quot;&gt;&#x9;&lt;/span&gt;&lt;span style=&quot;white-space: pre;&quot;&gt;&#x9;&lt;span style=&quot;white-space: pre;&quot;&gt;&#x9;&lt;/span&gt;&lt;/span&gt;&lt;/span&gt;&lt;span style=&quot;background-color: initial;&quot;&gt;Q&lt;/span&gt;&lt;/div&gt;&lt;div style=&quot;text-align: justify;&quot;&gt;&lt;span style=&quot;font-size: 12px;&quot;&gt;&lt;br&gt;&lt;/span&gt;&lt;/div&gt;&lt;div style=&quot;text-align: justify;&quot;&gt;&lt;span style=&quot;font-size: 12px;&quot;&gt;&lt;br&gt;&lt;/span&gt;&lt;/div&gt;&lt;div style=&quot;text-align: justify;&quot;&gt;&lt;span style=&quot;background-color: initial;&quot;&gt;EN&lt;/span&gt;&lt;/div&gt;&lt;div style=&quot;text-align: justify;&quot;&gt;&lt;span style=&quot;font-size: 12px;&quot;&gt;&lt;br&gt;&lt;/span&gt;&lt;/div&gt;&lt;div style=&quot;text-align: justify;&quot;&gt;&lt;span style=&quot;font-size: 12px;&quot;&gt;&lt;br&gt;&lt;/span&gt;&lt;/div&gt;&lt;div style=&quot;text-align: justify;&quot;&gt;&lt;span style=&quot;background-color: initial;&quot;&gt;RST&lt;/span&gt;&lt;/div&gt;" style="text;html=1;strokeColor=none;fillColor=#66FFFF;align=center;verticalAlign=middle;whiteSpace=wrap;rounded=0;" parent="1" vertex="1">
          <mxGeometry x="1320" y="200" width="120" height="120" as="geometry" />
        </mxCell>
        <mxCell id="7T8Nrw3sL6te4_rMvr3A-80" value="REGISTRO 3" style="text;html=1;strokeColor=none;fillColor=none;align=center;verticalAlign=middle;whiteSpace=wrap;rounded=0;" parent="1" vertex="1">
          <mxGeometry x="1320" y="180" width="120" height="30" as="geometry" />
        </mxCell>
        <mxCell id="7T8Nrw3sL6te4_rMvr3A-81" value="" style="triangle;whiteSpace=wrap;html=1;rotation=-90;" parent="1" vertex="1">
          <mxGeometry x="1375" y="310" width="10" height="10" as="geometry" />
        </mxCell>
        <mxCell id="7T8Nrw3sL6te4_rMvr3A-82" value="" style="rounded=0;whiteSpace=wrap;html=1;" parent="1" vertex="1">
          <mxGeometry x="800" y="-240" width="130" height="280" as="geometry" />
        </mxCell>
        <mxCell id="7T8Nrw3sL6te4_rMvr3A-86" style="edgeStyle=orthogonalEdgeStyle;rounded=0;orthogonalLoop=1;jettySize=auto;html=1;entryX=0.25;entryY=1;entryDx=0;entryDy=0;" parent="1" target="7T8Nrw3sL6te4_rMvr3A-88" edge="1">
          <mxGeometry relative="1" as="geometry">
            <mxPoint x="1119.98" y="42.08000000000038" as="targetPoint" />
            <Array as="points">
              <mxPoint x="1002" y="-30" />
              <mxPoint x="1002" y="40" />
            </Array>
            <mxPoint x="932.5" y="-30.000000000000227" as="sourcePoint" />
          </mxGeometry>
        </mxCell>
        <mxCell id="7T8Nrw3sL6te4_rMvr3A-83" value="&lt;div style=&quot;text-align: justify;&quot;&gt;&lt;span style=&quot;background-color: initial;&quot;&gt;&lt;span style=&quot;white-space: pre;&quot;&gt;&#x9;&lt;/span&gt;&lt;span style=&quot;white-space: pre;&quot;&gt;&#x9;&lt;/span&gt;&lt;span style=&quot;white-space: pre;&quot;&gt;&#x9;&lt;/span&gt;&lt;span style=&quot;white-space: pre;&quot;&gt;&#x9;&lt;/span&gt;En0&lt;/span&gt;&lt;/div&gt;&lt;div style=&quot;text-align: justify;&quot;&gt;&lt;span style=&quot;font-size: 12px;&quot;&gt;&lt;br&gt;&lt;/span&gt;&lt;/div&gt;&lt;div style=&quot;text-align: justify;&quot;&gt;&lt;span style=&quot;background-color: initial;&quot;&gt;ADDRESS&lt;/span&gt;&lt;/div&gt;&lt;div style=&quot;text-align: justify;&quot;&gt;&lt;span style=&quot;font-size: 12px;&quot;&gt;&lt;br&gt;&lt;/span&gt;&lt;/div&gt;&lt;div style=&quot;text-align: justify;&quot;&gt;&lt;span style=&quot;font-size: 12px;&quot;&gt;&lt;br&gt;&lt;/span&gt;&lt;/div&gt;&lt;div style=&quot;text-align: justify;&quot;&gt;&lt;span style=&quot;background-color: initial;&quot;&gt;WR&lt;/span&gt;&lt;/div&gt;&lt;div style=&quot;text-align: justify;&quot;&gt;&lt;span style=&quot;font-size: 12px;&quot;&gt;&lt;br&gt;&lt;/span&gt;&lt;/div&gt;&lt;div style=&quot;text-align: justify;&quot;&gt;&lt;span style=&quot;font-size: 12px;&quot;&gt;&lt;br&gt;&lt;/span&gt;&lt;/div&gt;&lt;div style=&quot;text-align: justify;&quot;&gt;&lt;span style=&quot;background-color: initial;&quot;&gt;SB_IN&lt;/span&gt;&lt;/div&gt;&lt;div style=&quot;text-align: justify;&quot;&gt;&lt;span style=&quot;font-size: 12px;&quot;&gt;&lt;br&gt;&lt;/span&gt;&lt;/div&gt;&lt;div style=&quot;text-align: justify;&quot;&gt;&lt;span style=&quot;background-color: initial; white-space: pre;&quot;&gt;&#x9;&lt;/span&gt;&lt;span style=&quot;background-color: initial; white-space: pre;&quot;&gt;&#x9;&lt;/span&gt;&lt;span style=&quot;background-color: initial; white-space: pre;&quot;&gt;&#x9;&lt;/span&gt;&lt;span style=&quot;background-color: initial; white-space: pre;&quot;&gt;&#x9;&lt;/span&gt;&lt;span style=&quot;background-color: initial;&quot;&gt;En2&lt;/span&gt;&lt;/div&gt;" style="text;html=1;strokeColor=none;fillColor=#FFFFCC;align=center;verticalAlign=middle;whiteSpace=wrap;rounded=0;" parent="1" vertex="1">
          <mxGeometry x="800" y="-240" width="130" height="280" as="geometry" />
        </mxCell>
        <mxCell id="7T8Nrw3sL6te4_rMvr3A-84" value="DECODIFICA" style="text;html=1;strokeColor=none;fillColor=none;align=center;verticalAlign=middle;whiteSpace=wrap;rounded=0;" parent="1" vertex="1">
          <mxGeometry x="800" y="-260" width="130" height="20" as="geometry" />
        </mxCell>
        <mxCell id="7T8Nrw3sL6te4_rMvr3A-85" style="edgeStyle=orthogonalEdgeStyle;rounded=0;orthogonalLoop=1;jettySize=auto;html=1;entryX=0;entryY=0.5;entryDx=0;entryDy=0;" parent="1" source="7T8Nrw3sL6te4_rMvr3A-83" target="7T8Nrw3sL6te4_rMvr3A-67" edge="1">
          <mxGeometry relative="1" as="geometry">
            <Array as="points">
              <mxPoint x="1000" y="-170" />
              <mxPoint x="1000" y="-340" />
            </Array>
          </mxGeometry>
        </mxCell>
        <mxCell id="7T8Nrw3sL6te4_rMvr3A-90" style="edgeStyle=orthogonalEdgeStyle;rounded=0;orthogonalLoop=1;jettySize=auto;html=1;entryX=0;entryY=0.5;entryDx=0;entryDy=0;" parent="1" source="7T8Nrw3sL6te4_rMvr3A-88" target="7T8Nrw3sL6te4_rMvr3A-75" edge="1">
          <mxGeometry relative="1" as="geometry" />
        </mxCell>
        <mxCell id="7T8Nrw3sL6te4_rMvr3A-88" value="" style="shape=trapezoid;perimeter=trapezoidPerimeter;whiteSpace=wrap;html=1;fixedSize=1;rotation=90;fillColor=#999999;" parent="1" vertex="1">
          <mxGeometry x="1100" y="40" width="80" height="40" as="geometry" />
        </mxCell>
        <mxCell id="7T8Nrw3sL6te4_rMvr3A-89" value="&lt;div style=&quot;text-align: justify;&quot;&gt;&lt;span style=&quot;background-color: initial;&quot;&gt;0&lt;/span&gt;&lt;/div&gt;&lt;div style=&quot;text-align: justify;&quot;&gt;&lt;span style=&quot;font-size: 12px;&quot;&gt;&lt;br&gt;&lt;/span&gt;&lt;/div&gt;&lt;div style=&quot;text-align: justify;&quot;&gt;&lt;span style=&quot;background-color: initial;&quot;&gt;1&lt;/span&gt;&lt;/div&gt;" style="text;html=1;strokeColor=none;fillColor=none;align=center;verticalAlign=middle;whiteSpace=wrap;rounded=0;" parent="1" vertex="1">
          <mxGeometry x="1160" y="20" width="10" height="80" as="geometry" />
        </mxCell>
        <mxCell id="7T8Nrw3sL6te4_rMvr3A-91" value="" style="shape=trapezoid;perimeter=trapezoidPerimeter;whiteSpace=wrap;html=1;fixedSize=1;rotation=-180;fillColor=#999999;" parent="1" vertex="1">
          <mxGeometry x="1170" y="-40" width="80" height="40" as="geometry" />
        </mxCell>
        <mxCell id="7T8Nrw3sL6te4_rMvr3A-94" value="0&lt;span style=&quot;white-space: pre;&quot;&gt;&#x9;&lt;/span&gt;1" style="text;html=1;strokeColor=none;fillColor=none;align=center;verticalAlign=middle;whiteSpace=wrap;rounded=0;" parent="1" vertex="1">
          <mxGeometry x="1170" y="-40" width="79" height="20" as="geometry" />
        </mxCell>
        <mxCell id="7T8Nrw3sL6te4_rMvr3A-95" style="edgeStyle=orthogonalEdgeStyle;rounded=0;orthogonalLoop=1;jettySize=auto;html=1;entryX=0.003;entryY=0.169;entryDx=0;entryDy=0;entryPerimeter=0;exitX=0.5;exitY=0;exitDx=0;exitDy=0;" parent="1" source="7T8Nrw3sL6te4_rMvr3A-91" target="7T8Nrw3sL6te4_rMvr3A-75" edge="1">
          <mxGeometry relative="1" as="geometry">
            <Array as="points">
              <mxPoint x="1210" y="20" />
              <mxPoint x="1241" y="20" />
            </Array>
          </mxGeometry>
        </mxCell>
        <mxCell id="7T8Nrw3sL6te4_rMvr3A-96" value="" style="rounded=0;whiteSpace=wrap;html=1;" parent="1" vertex="1">
          <mxGeometry x="1640" y="-440" width="320" height="160" as="geometry" />
        </mxCell>
        <mxCell id="7T8Nrw3sL6te4_rMvr3A-97" value="CRC_HARDWARE" style="text;html=1;strokeColor=none;fillColor=none;align=center;verticalAlign=middle;whiteSpace=wrap;rounded=0;" parent="1" vertex="1">
          <mxGeometry x="1640" y="-460" width="320" height="20" as="geometry" />
        </mxCell>
        <mxCell id="zgFCmv0UGNkScKTH35LV-53" style="edgeStyle=orthogonalEdgeStyle;rounded=0;orthogonalLoop=1;jettySize=auto;html=1;entryX=0;entryY=0.167;entryDx=0;entryDy=0;entryPerimeter=0;strokeColor=#FF0000;" parent="1" target="zgFCmv0UGNkScKTH35LV-5" edge="1">
          <mxGeometry relative="1" as="geometry">
            <mxPoint x="1460.0000000000005" y="400" as="targetPoint" />
            <mxPoint x="1720" y="-240" as="sourcePoint" />
            <Array as="points">
              <mxPoint x="1720" y="360" />
              <mxPoint x="1300" y="360" />
              <mxPoint x="1300" y="420" />
            </Array>
          </mxGeometry>
        </mxCell>
        <mxCell id="7T8Nrw3sL6te4_rMvr3A-98" value="&lt;div style=&quot;text-align: justify;&quot;&gt;&lt;span style=&quot;background-color: initial;&quot;&gt;IN_OLD&lt;/span&gt;&lt;/div&gt;&lt;div style=&quot;text-align: justify;&quot;&gt;&lt;br&gt;&lt;/div&gt;&lt;div style=&quot;text-align: justify;&quot;&gt;&lt;span style=&quot;background-color: initial;&quot;&gt;IN&lt;span style=&quot;white-space: pre;&quot;&gt;&#x9;&lt;/span&gt;&lt;span style=&quot;white-space: pre;&quot;&gt;&#x9;&lt;/span&gt;&lt;span style=&quot;white-space: pre;&quot;&gt;&#x9;&lt;/span&gt;&lt;span style=&quot;white-space: pre;&quot;&gt;&#x9;&lt;/span&gt;&lt;span style=&quot;white-space: pre;&quot;&gt;&#x9;&lt;/span&gt;&lt;span style=&quot;white-space: pre;&quot;&gt;&#x9;&lt;/span&gt;&lt;span style=&quot;white-space: pre;&quot;&gt;&#x9;&lt;/span&gt;&lt;span style=&quot;white-space: pre;&quot;&gt;&#x9;&lt;/span&gt;&lt;span style=&quot;white-space: pre;&quot;&gt;&#x9;&lt;/span&gt;&lt;span style=&quot;white-space: pre;&quot;&gt;&#x9;&amp;nbsp;&lt;/span&gt;&amp;nbsp; &amp;nbsp; &amp;nbsp;OUT&lt;/span&gt;&lt;/div&gt;&lt;div style=&quot;text-align: justify;&quot;&gt;&lt;br&gt;&lt;/div&gt;&lt;div style=&quot;text-align: justify;&quot;&gt;&lt;span style=&quot;background-color: initial;&quot;&gt;LD&lt;/span&gt;&lt;/div&gt;&lt;div style=&quot;text-align: justify;&quot;&gt;&lt;br&gt;&lt;/div&gt;&lt;div style=&quot;text-align: justify;&quot;&gt;&lt;span style=&quot;background-color: initial;&quot;&gt;SE&lt;/span&gt;&lt;/div&gt;&lt;div style=&quot;text-align: justify;&quot;&gt;&lt;span style=&quot;background-color: initial;&quot;&gt;&lt;br&gt;&lt;/span&gt;&lt;/div&gt;&lt;div style=&quot;text-align: justify;&quot;&gt;&lt;span style=&quot;background-color: initial;&quot;&gt;s_crc&lt;/span&gt;&lt;/div&gt;" style="text;html=1;strokeColor=none;fillColor=#FFFFCC;align=center;verticalAlign=middle;whiteSpace=wrap;rounded=0;" parent="1" vertex="1">
          <mxGeometry x="1640" y="-440" width="320" height="160" as="geometry" />
        </mxCell>
        <mxCell id="7T8Nrw3sL6te4_rMvr3A-99" value="" style="triangle;whiteSpace=wrap;html=1;rotation=-90;" parent="1" vertex="1">
          <mxGeometry x="1795" y="-290" width="10" height="10" as="geometry" />
        </mxCell>
        <mxCell id="7T8Nrw3sL6te4_rMvr3A-100" style="edgeStyle=orthogonalEdgeStyle;rounded=0;orthogonalLoop=1;jettySize=auto;html=1;" parent="1" source="7T8Nrw3sL6te4_rMvr3A-67" edge="1">
          <mxGeometry relative="1" as="geometry">
            <Array as="points">
              <mxPoint x="1490" y="-380" />
              <mxPoint x="1490" y="-380" />
            </Array>
            <mxPoint x="1640" y="-380" as="targetPoint" />
          </mxGeometry>
        </mxCell>
        <mxCell id="7T8Nrw3sL6te4_rMvr3A-101" style="edgeStyle=orthogonalEdgeStyle;rounded=0;orthogonalLoop=1;jettySize=auto;html=1;entryX=-0.003;entryY=0.163;entryDx=0;entryDy=0;entryPerimeter=0;strokeColor=#FF0000;" parent="1" source="7T8Nrw3sL6te4_rMvr3A-98" target="7T8Nrw3sL6te4_rMvr3A-71" edge="1">
          <mxGeometry relative="1" as="geometry">
            <Array as="points">
              <mxPoint x="2000" y="-380" />
              <mxPoint x="2000" y="-240" />
              <mxPoint x="1280" y="-240" />
              <mxPoint x="1280" y="-180" />
              <mxPoint x="1320" y="-180" />
            </Array>
          </mxGeometry>
        </mxCell>
        <mxCell id="7T8Nrw3sL6te4_rMvr3A-103" value="" style="endArrow=none;html=1;rounded=0;" parent="1" edge="1">
          <mxGeometry width="50" height="50" relative="1" as="geometry">
            <mxPoint x="1470" y="70" as="sourcePoint" />
            <mxPoint x="1490" y="50" as="targetPoint" />
          </mxGeometry>
        </mxCell>
        <mxCell id="7T8Nrw3sL6te4_rMvr3A-104" value="16&lt;br&gt;" style="text;html=1;strokeColor=none;fillColor=none;align=center;verticalAlign=middle;whiteSpace=wrap;rounded=0;" parent="1" vertex="1">
          <mxGeometry x="1460" y="60" width="60" height="20" as="geometry" />
        </mxCell>
        <mxCell id="7T8Nrw3sL6te4_rMvr3A-105" value="" style="endArrow=none;html=1;rounded=0;" parent="1" edge="1">
          <mxGeometry width="50" height="50" relative="1" as="geometry">
            <mxPoint x="1470" y="-40" as="sourcePoint" />
            <mxPoint x="1490" y="-60" as="targetPoint" />
          </mxGeometry>
        </mxCell>
        <mxCell id="7T8Nrw3sL6te4_rMvr3A-106" value="16&lt;br&gt;" style="text;html=1;strokeColor=none;fillColor=none;align=center;verticalAlign=middle;whiteSpace=wrap;rounded=0;" parent="1" vertex="1">
          <mxGeometry x="1460" y="-50" width="60" height="20" as="geometry" />
        </mxCell>
        <mxCell id="7T8Nrw3sL6te4_rMvr3A-107" value="" style="endArrow=classic;html=1;rounded=0;strokeColor=#3333FF;entryX=0.5;entryY=0;entryDx=0;entryDy=0;" parent="1" target="7T8Nrw3sL6te4_rMvr3A-191" edge="1">
          <mxGeometry width="50" height="50" relative="1" as="geometry">
            <mxPoint x="1520" y="60" as="sourcePoint" />
            <mxPoint x="1520" y="100" as="targetPoint" />
          </mxGeometry>
        </mxCell>
        <mxCell id="7T8Nrw3sL6te4_rMvr3A-108" value="" style="endArrow=none;html=1;rounded=0;" parent="1" edge="1">
          <mxGeometry width="50" height="50" relative="1" as="geometry">
            <mxPoint x="1510" y="10" as="sourcePoint" />
            <mxPoint x="1530" y="-10" as="targetPoint" />
          </mxGeometry>
        </mxCell>
        <mxCell id="7T8Nrw3sL6te4_rMvr3A-109" value="15" style="text;html=1;strokeColor=none;fillColor=none;align=center;verticalAlign=middle;whiteSpace=wrap;rounded=0;" parent="1" vertex="1">
          <mxGeometry x="1500" width="60" height="20" as="geometry" />
        </mxCell>
        <mxCell id="7T8Nrw3sL6te4_rMvr3A-110" value="" style="endArrow=none;html=1;rounded=0;" parent="1" edge="1">
          <mxGeometry width="50" height="50" relative="1" as="geometry">
            <mxPoint x="1510" y="90" as="sourcePoint" />
            <mxPoint x="1530" y="70" as="targetPoint" />
          </mxGeometry>
        </mxCell>
        <mxCell id="7T8Nrw3sL6te4_rMvr3A-111" value="1 (LSB)" style="text;html=1;strokeColor=none;fillColor=none;align=center;verticalAlign=middle;whiteSpace=wrap;rounded=0;" parent="1" vertex="1">
          <mxGeometry x="1520" y="70" width="60" height="20" as="geometry" />
        </mxCell>
        <mxCell id="7T8Nrw3sL6te4_rMvr3A-112" value="" style="endArrow=none;html=1;rounded=0;" parent="1" edge="1">
          <mxGeometry width="50" height="50" relative="1" as="geometry">
            <mxPoint x="1550" y="-40" as="sourcePoint" />
            <mxPoint x="1570" y="-60" as="targetPoint" />
          </mxGeometry>
        </mxCell>
        <mxCell id="7T8Nrw3sL6te4_rMvr3A-113" value="1 (LSB)" style="text;html=1;strokeColor=none;fillColor=none;align=center;verticalAlign=middle;whiteSpace=wrap;rounded=0;" parent="1" vertex="1">
          <mxGeometry x="1550" y="-50" width="60" height="20" as="geometry" />
        </mxCell>
        <mxCell id="7T8Nrw3sL6te4_rMvr3A-114" value="" style="endArrow=classic;html=1;rounded=0;entryX=1;entryY=0;entryDx=0;entryDy=0;" parent="1" target="7T8Nrw3sL6te4_rMvr3A-106" edge="1">
          <mxGeometry width="50" height="50" relative="1" as="geometry">
            <mxPoint x="1600" y="-50" as="sourcePoint" />
            <mxPoint x="1690" y="-100" as="targetPoint" />
          </mxGeometry>
        </mxCell>
        <mxCell id="7T8Nrw3sL6te4_rMvr3A-115" value="0" style="text;html=1;strokeColor=none;fillColor=none;align=center;verticalAlign=middle;whiteSpace=wrap;rounded=0;" parent="1" vertex="1">
          <mxGeometry x="1600" y="-60" width="20" height="20" as="geometry" />
        </mxCell>
        <mxCell id="7T8Nrw3sL6te4_rMvr3A-118" value="" style="endArrow=classic;html=1;rounded=0;entryX=1;entryY=0;entryDx=0;entryDy=0;" parent="1" target="7T8Nrw3sL6te4_rMvr3A-106" edge="1">
          <mxGeometry width="50" height="50" relative="1" as="geometry">
            <mxPoint x="1520" y="60" as="sourcePoint" />
            <mxPoint x="1570" y="10" as="targetPoint" />
          </mxGeometry>
        </mxCell>
        <mxCell id="7T8Nrw3sL6te4_rMvr3A-119" value="" style="endArrow=classic;html=1;rounded=0;entryX=0.75;entryY=0;entryDx=0;entryDy=0;" parent="1" target="7T8Nrw3sL6te4_rMvr3A-94" edge="1">
          <mxGeometry width="50" height="50" relative="1" as="geometry">
            <mxPoint x="1520" y="-50.170000000000016" as="sourcePoint" />
            <mxPoint x="1400" y="-50.170000000000016" as="targetPoint" />
            <Array as="points">
              <mxPoint x="1230" y="-50" />
            </Array>
          </mxGeometry>
        </mxCell>
        <mxCell id="7T8Nrw3sL6te4_rMvr3A-120" value="" style="endArrow=none;html=1;rounded=0;" parent="1" edge="1">
          <mxGeometry width="50" height="50" relative="1" as="geometry">
            <mxPoint x="1470" y="230" as="sourcePoint" />
            <mxPoint x="1490" y="210" as="targetPoint" />
          </mxGeometry>
        </mxCell>
        <mxCell id="7T8Nrw3sL6te4_rMvr3A-121" value="16&lt;br&gt;" style="text;html=1;strokeColor=none;fillColor=none;align=center;verticalAlign=middle;whiteSpace=wrap;rounded=0;" parent="1" vertex="1">
          <mxGeometry x="1460" y="220" width="60" height="20" as="geometry" />
        </mxCell>
        <mxCell id="7T8Nrw3sL6te4_rMvr3A-122" value="" style="endArrow=classic;html=1;rounded=0;entryX=0.002;entryY=0.651;entryDx=0;entryDy=0;entryPerimeter=0;" parent="1" edge="1">
          <mxGeometry width="50" height="50" relative="1" as="geometry">
            <mxPoint x="960" y="160" as="sourcePoint" />
            <mxPoint x="800.26" y="-59.72000000000003" as="targetPoint" />
            <Array as="points">
              <mxPoint x="760" y="160" />
              <mxPoint x="760" y="-60" />
            </Array>
          </mxGeometry>
        </mxCell>
        <mxCell id="7T8Nrw3sL6te4_rMvr3A-125" value="" style="endArrow=classic;html=1;rounded=0;" parent="1" edge="1">
          <mxGeometry width="50" height="50" relative="1" as="geometry">
            <mxPoint x="960" y="160" as="sourcePoint" />
            <mxPoint x="960" y="220" as="targetPoint" />
          </mxGeometry>
        </mxCell>
        <mxCell id="7T8Nrw3sL6te4_rMvr3A-126" value="" style="endArrow=classic;html=1;rounded=0;entryX=0.004;entryY=0.17;entryDx=0;entryDy=0;entryPerimeter=0;" parent="1" target="7T8Nrw3sL6te4_rMvr3A-79" edge="1">
          <mxGeometry width="50" height="50" relative="1" as="geometry">
            <mxPoint x="960" y="220" as="sourcePoint" />
            <mxPoint x="1010" y="170" as="targetPoint" />
          </mxGeometry>
        </mxCell>
        <mxCell id="7T8Nrw3sL6te4_rMvr3A-127" value="" style="endArrow=classic;html=1;rounded=0;entryX=0.004;entryY=0.17;entryDx=0;entryDy=0;entryPerimeter=0;strokeColor=#3333FF;" parent="1" edge="1">
          <mxGeometry width="50" height="50" relative="1" as="geometry">
            <mxPoint x="840" y="220" as="sourcePoint" />
            <mxPoint x="960" y="220" as="targetPoint" />
          </mxGeometry>
        </mxCell>
        <mxCell id="7T8Nrw3sL6te4_rMvr3A-128" value="" style="endArrow=none;html=1;rounded=0;" parent="1" edge="1">
          <mxGeometry width="50" height="50" relative="1" as="geometry">
            <mxPoint x="870" y="170" as="sourcePoint" />
            <mxPoint x="890" y="150" as="targetPoint" />
          </mxGeometry>
        </mxCell>
        <mxCell id="7T8Nrw3sL6te4_rMvr3A-129" value="1 (LSB)" style="text;html=1;strokeColor=none;fillColor=none;align=center;verticalAlign=middle;whiteSpace=wrap;rounded=0;" parent="1" vertex="1">
          <mxGeometry x="870" y="160" width="60" height="20" as="geometry" />
        </mxCell>
        <mxCell id="7T8Nrw3sL6te4_rMvr3A-130" value="" style="endArrow=none;html=1;rounded=0;" parent="1" edge="1">
          <mxGeometry width="50" height="50" relative="1" as="geometry">
            <mxPoint x="951" y="190" as="sourcePoint" />
            <mxPoint x="971" y="170" as="targetPoint" />
          </mxGeometry>
        </mxCell>
        <mxCell id="7T8Nrw3sL6te4_rMvr3A-131" value="15" style="text;html=1;strokeColor=none;fillColor=none;align=center;verticalAlign=middle;whiteSpace=wrap;rounded=0;" parent="1" vertex="1">
          <mxGeometry x="941" y="180" width="60" height="20" as="geometry" />
        </mxCell>
        <mxCell id="7T8Nrw3sL6te4_rMvr3A-132" value="" style="endArrow=none;html=1;rounded=0;" parent="1" edge="1">
          <mxGeometry width="50" height="50" relative="1" as="geometry">
            <mxPoint x="1070" y="230" as="sourcePoint" />
            <mxPoint x="1090" y="210" as="targetPoint" />
          </mxGeometry>
        </mxCell>
        <mxCell id="7T8Nrw3sL6te4_rMvr3A-133" value="16&lt;br&gt;" style="text;html=1;strokeColor=none;fillColor=none;align=center;verticalAlign=middle;whiteSpace=wrap;rounded=0;" parent="1" vertex="1">
          <mxGeometry x="1060" y="220" width="60" height="20" as="geometry" />
        </mxCell>
        <mxCell id="7T8Nrw3sL6te4_rMvr3A-134" value="" style="endArrow=none;html=1;rounded=0;strokeColor=#3333FF;" parent="1" edge="1">
          <mxGeometry width="50" height="50" relative="1" as="geometry">
            <mxPoint x="870" y="230" as="sourcePoint" />
            <mxPoint x="890" y="210" as="targetPoint" />
          </mxGeometry>
        </mxCell>
        <mxCell id="7T8Nrw3sL6te4_rMvr3A-135" value="1 (LSB)" style="text;html=1;strokeColor=none;fillColor=none;align=center;verticalAlign=middle;whiteSpace=wrap;rounded=0;" parent="1" vertex="1">
          <mxGeometry x="870" y="220" width="60" height="20" as="geometry" />
        </mxCell>
        <mxCell id="7T8Nrw3sL6te4_rMvr3A-136" value="" style="rounded=0;whiteSpace=wrap;html=1;" parent="1" vertex="1">
          <mxGeometry x="2000" y="80" width="120" height="320" as="geometry" />
        </mxCell>
        <mxCell id="7T8Nrw3sL6te4_rMvr3A-137" value="SELETTORE_USCITA" style="text;html=1;strokeColor=none;fillColor=none;align=center;verticalAlign=middle;whiteSpace=wrap;rounded=0;" parent="1" vertex="1">
          <mxGeometry x="2005" y="60" width="110" height="20" as="geometry" />
        </mxCell>
        <mxCell id="7T8Nrw3sL6te4_rMvr3A-138" value="&lt;div style=&quot;text-align: justify;&quot;&gt;&lt;span style=&quot;background-color: initial;&quot;&gt;IN0&lt;/span&gt;&lt;/div&gt;&lt;div style=&quot;text-align: justify;&quot;&gt;&lt;span style=&quot;font-size: 12px;&quot;&gt;&lt;br&gt;&lt;/span&gt;&lt;/div&gt;&lt;div style=&quot;text-align: justify;&quot;&gt;&lt;span style=&quot;font-size: 12px;&quot;&gt;&lt;br&gt;&lt;/span&gt;&lt;/div&gt;&lt;div style=&quot;text-align: justify;&quot;&gt;&lt;span style=&quot;background-color: initial;&quot;&gt;IN1&lt;/span&gt;&lt;/div&gt;&lt;div style=&quot;text-align: justify;&quot;&gt;&lt;span style=&quot;font-size: 12px;&quot;&gt;&lt;br&gt;&lt;/span&gt;&lt;/div&gt;&lt;div style=&quot;text-align: justify;&quot;&gt;&lt;span style=&quot;font-size: 12px;&quot;&gt;&lt;br&gt;&lt;/span&gt;&lt;/div&gt;&lt;div style=&quot;text-align: justify;&quot;&gt;&lt;span style=&quot;background-color: initial;&quot;&gt;IN2&lt;span style=&quot;white-space: pre;&quot;&gt;&#x9;&lt;span style=&quot;white-space: pre;&quot;&gt;&#x9;&lt;/span&gt;&lt;span style=&quot;white-space: pre;&quot;&gt;&#x9;&lt;/span&gt; &lt;/span&gt;&amp;nbsp; OUT&lt;/span&gt;&lt;/div&gt;&lt;div style=&quot;text-align: justify;&quot;&gt;&lt;span style=&quot;font-size: 12px;&quot;&gt;&lt;br&gt;&lt;/span&gt;&lt;/div&gt;&lt;div style=&quot;text-align: justify;&quot;&gt;&lt;span style=&quot;font-size: 12px;&quot;&gt;&lt;br&gt;&lt;/span&gt;&lt;/div&gt;&lt;div style=&quot;text-align: justify;&quot;&gt;&lt;span style=&quot;background-color: initial;&quot;&gt;IN3&lt;/span&gt;&lt;/div&gt;&lt;div style=&quot;text-align: justify;&quot;&gt;&lt;span style=&quot;background-color: initial;&quot;&gt;&lt;br&gt;&lt;/span&gt;&lt;/div&gt;&lt;div style=&quot;text-align: justify;&quot;&gt;&lt;span style=&quot;background-color: initial;&quot;&gt;&lt;br&gt;&lt;/span&gt;&lt;/div&gt;&lt;div style=&quot;text-align: justify;&quot;&gt;IN4&lt;/div&gt;&lt;div style=&quot;text-align: justify;&quot;&gt;&lt;br&gt;&lt;/div&gt;&lt;div style=&quot;text-align: justify;&quot;&gt;&lt;br&gt;&lt;/div&gt;&lt;div style=&quot;text-align: justify;&quot;&gt;IN5&lt;/div&gt;&lt;div style=&quot;text-align: justify;&quot;&gt;&lt;span style=&quot;font-size: 12px;&quot;&gt;&lt;br&gt;&lt;/span&gt;&lt;/div&gt;&lt;div style=&quot;text-align: justify;&quot;&gt;&lt;span style=&quot;font-size: 12px;&quot;&gt;&lt;br&gt;&lt;/span&gt;&lt;/div&gt;&lt;div style=&quot;text-align: justify;&quot;&gt;ADDRESS&lt;/div&gt;&lt;div style=&quot;text-align: justify;&quot;&gt;&lt;br&gt;&lt;/div&gt;&lt;div style=&quot;text-align: justify;&quot;&gt;&lt;br&gt;&lt;/div&gt;&lt;div style=&quot;text-align: justify;&quot;&gt;RD&lt;/div&gt;" style="text;html=1;strokeColor=none;fillColor=#FFFFCC;align=center;verticalAlign=middle;whiteSpace=wrap;rounded=0;" parent="1" vertex="1">
          <mxGeometry x="2000" y="80" width="120" height="320" as="geometry" />
        </mxCell>
        <mxCell id="7T8Nrw3sL6te4_rMvr3A-139" value="" style="triangle;whiteSpace=wrap;html=1;rotation=-90;" parent="1" vertex="1">
          <mxGeometry x="2055" y="390" width="10" height="10" as="geometry" />
        </mxCell>
        <mxCell id="7T8Nrw3sL6te4_rMvr3A-140" style="edgeStyle=orthogonalEdgeStyle;rounded=0;orthogonalLoop=1;jettySize=auto;html=1;entryX=0;entryY=0.042;entryDx=0;entryDy=0;entryPerimeter=0;" parent="1" target="7T8Nrw3sL6te4_rMvr3A-138" edge="1">
          <mxGeometry relative="1" as="geometry">
            <mxPoint x="1439.56" y="-380" as="sourcePoint" />
            <mxPoint x="1800" y="-180" as="targetPoint" />
            <Array as="points">
              <mxPoint x="1560" y="-380" />
              <mxPoint x="1560" y="-150" />
              <mxPoint x="1920" y="-150" />
              <mxPoint x="1920" y="93" />
              <mxPoint x="2000" y="93" />
            </Array>
          </mxGeometry>
        </mxCell>
        <mxCell id="7T8Nrw3sL6te4_rMvr3A-141" style="edgeStyle=orthogonalEdgeStyle;rounded=0;orthogonalLoop=1;jettySize=auto;html=1;entryX=-0.012;entryY=0.152;entryDx=0;entryDy=0;entryPerimeter=0;" parent="1" target="7T8Nrw3sL6te4_rMvr3A-138" edge="1">
          <mxGeometry relative="1" as="geometry">
            <mxPoint x="1440" y="-180" as="sourcePoint" />
            <mxPoint x="1840" y="-110" as="targetPoint" />
            <Array as="points">
              <mxPoint x="1520" y="-180" />
              <mxPoint x="1520" y="-110" />
              <mxPoint x="1880" y="-110" />
              <mxPoint x="1880" y="129" />
            </Array>
          </mxGeometry>
        </mxCell>
        <mxCell id="7T8Nrw3sL6te4_rMvr3A-142" value="" style="endArrow=classic;html=1;rounded=0;entryX=-0.002;entryY=0.289;entryDx=0;entryDy=0;entryPerimeter=0;" parent="1" target="7T8Nrw3sL6te4_rMvr3A-138" edge="1">
          <mxGeometry width="50" height="50" relative="1" as="geometry">
            <mxPoint x="1520" y="60.60000000000002" as="sourcePoint" />
            <mxPoint x="1837.8000000000002" y="-59.999999999999886" as="targetPoint" />
            <Array as="points">
              <mxPoint x="1760" y="60" />
              <mxPoint x="1840" y="60" />
              <mxPoint x="1840" y="172" />
            </Array>
          </mxGeometry>
        </mxCell>
        <mxCell id="7T8Nrw3sL6te4_rMvr3A-144" value="" style="endArrow=none;html=1;rounded=0;" parent="1" edge="1">
          <mxGeometry width="50" height="50" relative="1" as="geometry">
            <mxPoint x="1610" y="70" as="sourcePoint" />
            <mxPoint x="1630" y="50" as="targetPoint" />
          </mxGeometry>
        </mxCell>
        <mxCell id="7T8Nrw3sL6te4_rMvr3A-145" value="16&lt;br&gt;" style="text;html=1;strokeColor=none;fillColor=none;align=center;verticalAlign=middle;whiteSpace=wrap;rounded=0;" parent="1" vertex="1">
          <mxGeometry x="1600" y="60" width="60" height="20" as="geometry" />
        </mxCell>
        <mxCell id="7T8Nrw3sL6te4_rMvr3A-147" value="" style="endArrow=none;html=1;rounded=0;" parent="1" edge="1">
          <mxGeometry width="50" height="50" relative="1" as="geometry">
            <mxPoint x="1610" y="230" as="sourcePoint" />
            <mxPoint x="1630" y="210" as="targetPoint" />
          </mxGeometry>
        </mxCell>
        <mxCell id="7T8Nrw3sL6te4_rMvr3A-148" value="16&lt;br&gt;" style="text;html=1;strokeColor=none;fillColor=none;align=center;verticalAlign=middle;whiteSpace=wrap;rounded=0;" parent="1" vertex="1">
          <mxGeometry x="1600" y="220" width="60" height="20" as="geometry" />
        </mxCell>
        <mxCell id="7T8Nrw3sL6te4_rMvr3A-149" value="" style="endArrow=none;html=1;rounded=0;" parent="1" edge="1">
          <mxGeometry width="50" height="50" relative="1" as="geometry">
            <mxPoint x="1071" y="170" as="sourcePoint" />
            <mxPoint x="1091" y="150" as="targetPoint" />
          </mxGeometry>
        </mxCell>
        <mxCell id="7T8Nrw3sL6te4_rMvr3A-150" value="16&lt;br&gt;" style="text;html=1;strokeColor=none;fillColor=none;align=center;verticalAlign=middle;whiteSpace=wrap;rounded=0;" parent="1" vertex="1">
          <mxGeometry x="1061" y="160" width="60" height="20" as="geometry" />
        </mxCell>
        <mxCell id="7T8Nrw3sL6te4_rMvr3A-155" value="" style="endArrow=classic;html=1;rounded=0;exitX=0;exitY=1;exitDx=0;exitDy=0;" parent="1" source="7T8Nrw3sL6te4_rMvr3A-234" edge="1">
          <mxGeometry width="50" height="50" relative="1" as="geometry">
            <mxPoint x="750" y="-50" as="sourcePoint" />
            <mxPoint x="800" y="-100" as="targetPoint" />
          </mxGeometry>
        </mxCell>
        <mxCell id="7T8Nrw3sL6te4_rMvr3A-156" value="" style="endArrow=classic;html=1;rounded=0;exitX=0;exitY=1;exitDx=0;exitDy=0;entryX=-0.011;entryY=0.163;entryDx=0;entryDy=0;entryPerimeter=0;" parent="1" source="7T8Nrw3sL6te4_rMvr3A-232" target="7T8Nrw3sL6te4_rMvr3A-67" edge="1">
          <mxGeometry width="50" height="50" relative="1" as="geometry">
            <mxPoint x="601.2000000000002" y="-380.80000000000007" as="sourcePoint" />
            <mxPoint x="1240" y="-380" as="targetPoint" />
          </mxGeometry>
        </mxCell>
        <mxCell id="7T8Nrw3sL6te4_rMvr3A-157" value="" style="endArrow=classic;html=1;rounded=0;entryX=0.25;entryY=0;entryDx=0;entryDy=0;" parent="1" target="7T8Nrw3sL6te4_rMvr3A-94" edge="1">
          <mxGeometry width="50" height="50" relative="1" as="geometry">
            <mxPoint x="1190" y="-380" as="sourcePoint" />
            <mxPoint x="1270" y="-430" as="targetPoint" />
          </mxGeometry>
        </mxCell>
        <mxCell id="7T8Nrw3sL6te4_rMvr3A-160" style="edgeStyle=orthogonalEdgeStyle;rounded=0;orthogonalLoop=1;jettySize=auto;html=1;entryX=0;entryY=0.5;entryDx=0;entryDy=0;strokeColor=#3333FF;" parent="1" source="7T8Nrw3sL6te4_rMvr3A-159" target="7T8Nrw3sL6te4_rMvr3A-71" edge="1">
          <mxGeometry relative="1" as="geometry" />
        </mxCell>
        <mxCell id="7T8Nrw3sL6te4_rMvr3A-159" value="En1" style="text;html=1;strokeColor=#3333FF;fillColor=none;align=center;verticalAlign=middle;whiteSpace=wrap;rounded=0;" parent="1" vertex="1">
          <mxGeometry x="1269.99" y="-150" width="30" height="20" as="geometry" />
        </mxCell>
        <mxCell id="7T8Nrw3sL6te4_rMvr3A-164" style="edgeStyle=orthogonalEdgeStyle;rounded=0;orthogonalLoop=1;jettySize=auto;html=1;entryX=0;entryY=0.5;entryDx=0;entryDy=0;strokeColor=#3333FF;" parent="1" source="7T8Nrw3sL6te4_rMvr3A-165" edge="1">
          <mxGeometry relative="1" as="geometry">
            <mxPoint x="1319.99" y="260" as="targetPoint" />
            <Array as="points">
              <mxPoint x="1320" y="260" />
            </Array>
          </mxGeometry>
        </mxCell>
        <mxCell id="7T8Nrw3sL6te4_rMvr3A-165" value="En3" style="text;html=1;strokeColor=#3333FF;fillColor=none;align=center;verticalAlign=middle;whiteSpace=wrap;rounded=0;" parent="1" vertex="1">
          <mxGeometry x="1269.99" y="250" width="30" height="20" as="geometry" />
        </mxCell>
        <mxCell id="7T8Nrw3sL6te4_rMvr3A-166" style="edgeStyle=orthogonalEdgeStyle;rounded=0;orthogonalLoop=1;jettySize=auto;html=1;entryX=0;entryY=0.5;entryDx=0;entryDy=0;strokeColor=#3333FF;" parent="1" source="7T8Nrw3sL6te4_rMvr3A-167" edge="1">
          <mxGeometry relative="1" as="geometry">
            <mxPoint x="1120.99" y="75" as="targetPoint" />
            <Array as="points">
              <mxPoint x="1120.99" y="75" />
            </Array>
          </mxGeometry>
        </mxCell>
        <mxCell id="7T8Nrw3sL6te4_rMvr3A-167" value="En2_cu" style="text;html=1;strokeColor=#3333FF;fillColor=none;align=center;verticalAlign=middle;whiteSpace=wrap;rounded=0;" parent="1" vertex="1">
          <mxGeometry x="1030" y="60" width="49.99" height="30" as="geometry" />
        </mxCell>
        <mxCell id="7T8Nrw3sL6te4_rMvr3A-173" style="edgeStyle=orthogonalEdgeStyle;rounded=0;orthogonalLoop=1;jettySize=auto;html=1;entryX=0;entryY=0.5;entryDx=0;entryDy=0;strokeColor=#3333FF;" parent="1" edge="1">
          <mxGeometry relative="1" as="geometry">
            <mxPoint x="1320" y="-90.09000000000003" as="targetPoint" />
            <mxPoint x="1299.99" y="-90.09000000000003" as="sourcePoint" />
            <Array as="points">
              <mxPoint x="1319.99" y="-90.09000000000003" />
            </Array>
          </mxGeometry>
        </mxCell>
        <mxCell id="7T8Nrw3sL6te4_rMvr3A-174" value="RST_reg1" style="text;html=1;strokeColor=#3333FF;fillColor=none;align=center;verticalAlign=middle;whiteSpace=wrap;rounded=0;" parent="1" vertex="1">
          <mxGeometry x="1240" y="-100" width="59.99" height="20" as="geometry" />
        </mxCell>
        <mxCell id="7T8Nrw3sL6te4_rMvr3A-175" style="edgeStyle=orthogonalEdgeStyle;rounded=0;orthogonalLoop=1;jettySize=auto;html=1;entryX=0;entryY=0.5;entryDx=0;entryDy=0;strokeColor=#3333FF;" parent="1" edge="1">
          <mxGeometry relative="1" as="geometry">
            <mxPoint x="1320" y="-290.15" as="targetPoint" />
            <mxPoint x="1299.99" y="-290.15" as="sourcePoint" />
            <Array as="points">
              <mxPoint x="1319.99" y="-290.15" />
            </Array>
          </mxGeometry>
        </mxCell>
        <mxCell id="7T8Nrw3sL6te4_rMvr3A-176" value="RST" style="text;html=1;strokeColor=#3333FF;fillColor=none;align=center;verticalAlign=middle;whiteSpace=wrap;rounded=0;" parent="1" vertex="1">
          <mxGeometry x="1269.99" y="-300" width="30" height="20" as="geometry" />
        </mxCell>
        <mxCell id="7T8Nrw3sL6te4_rMvr3A-183" style="edgeStyle=orthogonalEdgeStyle;rounded=0;orthogonalLoop=1;jettySize=auto;html=1;entryX=0;entryY=0.5;entryDx=0;entryDy=0;strokeColor=#3333FF;" parent="1" edge="1">
          <mxGeometry relative="1" as="geometry">
            <mxPoint x="1320" y="109.85000000000002" as="targetPoint" />
            <mxPoint x="1299.99" y="109.85000000000002" as="sourcePoint" />
            <Array as="points">
              <mxPoint x="1319.99" y="109.85000000000002" />
            </Array>
          </mxGeometry>
        </mxCell>
        <mxCell id="7T8Nrw3sL6te4_rMvr3A-184" value="RST" style="text;html=1;strokeColor=#3333FF;fillColor=none;align=center;verticalAlign=middle;whiteSpace=wrap;rounded=0;" parent="1" vertex="1">
          <mxGeometry x="1269.99" y="100" width="30" height="20" as="geometry" />
        </mxCell>
        <mxCell id="7T8Nrw3sL6te4_rMvr3A-185" style="edgeStyle=orthogonalEdgeStyle;rounded=0;orthogonalLoop=1;jettySize=auto;html=1;entryX=0;entryY=0.5;entryDx=0;entryDy=0;strokeColor=#3333FF;" parent="1" edge="1">
          <mxGeometry relative="1" as="geometry">
            <mxPoint x="1320" y="309.85" as="targetPoint" />
            <mxPoint x="1299.99" y="309.85" as="sourcePoint" />
            <Array as="points">
              <mxPoint x="1319.99" y="309.85" />
            </Array>
          </mxGeometry>
        </mxCell>
        <mxCell id="7T8Nrw3sL6te4_rMvr3A-186" value="RST" style="text;html=1;strokeColor=#3333FF;fillColor=none;align=center;verticalAlign=middle;whiteSpace=wrap;rounded=0;" parent="1" vertex="1">
          <mxGeometry x="1269.99" y="300" width="30" height="20" as="geometry" />
        </mxCell>
        <mxCell id="7T8Nrw3sL6te4_rMvr3A-187" style="edgeStyle=orthogonalEdgeStyle;rounded=0;orthogonalLoop=1;jettySize=auto;html=1;strokeColor=#3333FF;exitX=1;exitY=0.5;exitDx=0;exitDy=0;" parent="1" source="7T8Nrw3sL6te4_rMvr3A-188" edge="1">
          <mxGeometry relative="1" as="geometry">
            <mxPoint x="1640" y="-360" as="targetPoint" />
            <mxPoint x="1619.99" y="-340.15" as="sourcePoint" />
            <Array as="points" />
          </mxGeometry>
        </mxCell>
        <mxCell id="7T8Nrw3sL6te4_rMvr3A-188" value="LD" style="text;html=1;strokeColor=#3333FF;fillColor=none;align=center;verticalAlign=middle;whiteSpace=wrap;rounded=0;" parent="1" vertex="1">
          <mxGeometry x="1580" y="-370" width="40" height="20" as="geometry" />
        </mxCell>
        <mxCell id="7T8Nrw3sL6te4_rMvr3A-189" style="edgeStyle=orthogonalEdgeStyle;rounded=0;orthogonalLoop=1;jettySize=auto;html=1;entryX=0;entryY=0.5;entryDx=0;entryDy=0;strokeColor=#3333FF;" parent="1" edge="1">
          <mxGeometry relative="1" as="geometry">
            <mxPoint x="1640" y="-330.15" as="targetPoint" />
            <mxPoint x="1619.99" y="-330.15" as="sourcePoint" />
            <Array as="points">
              <mxPoint x="1639.99" y="-330.15" />
            </Array>
          </mxGeometry>
        </mxCell>
        <mxCell id="7T8Nrw3sL6te4_rMvr3A-190" value="SE" style="text;html=1;strokeColor=#3333FF;fillColor=none;align=center;verticalAlign=middle;whiteSpace=wrap;rounded=0;" parent="1" vertex="1">
          <mxGeometry x="1580" y="-340" width="39.99" height="20" as="geometry" />
        </mxCell>
        <mxCell id="7T8Nrw3sL6te4_rMvr3A-191" value="RB" style="text;html=1;strokeColor=#3333FF;fillColor=none;align=center;verticalAlign=middle;whiteSpace=wrap;rounded=0;" parent="1" vertex="1">
          <mxGeometry x="1500" y="105" width="40" height="20" as="geometry" />
        </mxCell>
        <mxCell id="7T8Nrw3sL6te4_rMvr3A-192" value="" style="endArrow=classic;html=1;rounded=0;strokeColor=#3333FF;" parent="1" target="7T8Nrw3sL6te4_rMvr3A-193" edge="1">
          <mxGeometry width="50" height="50" relative="1" as="geometry">
            <mxPoint x="1000" y="-170" as="sourcePoint" />
            <mxPoint x="1050" y="-220" as="targetPoint" />
          </mxGeometry>
        </mxCell>
        <mxCell id="7T8Nrw3sL6te4_rMvr3A-193" value="En0" style="text;html=1;strokeColor=#3333FF;fillColor=none;align=center;verticalAlign=middle;whiteSpace=wrap;rounded=0;" parent="1" vertex="1">
          <mxGeometry x="1040" y="-180" width="40" height="20" as="geometry" />
        </mxCell>
        <mxCell id="7T8Nrw3sL6te4_rMvr3A-194" value="SB" style="text;html=1;strokeColor=#3333FF;fillColor=none;align=center;verticalAlign=middle;whiteSpace=wrap;rounded=0;" parent="1" vertex="1">
          <mxGeometry x="800" y="210" width="40" height="20" as="geometry" />
        </mxCell>
        <mxCell id="7T8Nrw3sL6te4_rMvr3A-195" value="" style="rounded=0;whiteSpace=wrap;html=1;fillColor=#E5CCFF;" parent="1" vertex="1">
          <mxGeometry x="840" y="940" width="160" height="420" as="geometry" />
        </mxCell>
        <mxCell id="7T8Nrw3sL6te4_rMvr3A-196" value="CU" style="text;html=1;strokeColor=none;fillColor=none;align=center;verticalAlign=middle;whiteSpace=wrap;rounded=0;" parent="1" vertex="1">
          <mxGeometry x="840" y="920" width="160" height="20" as="geometry" />
        </mxCell>
        <mxCell id="7T8Nrw3sL6te4_rMvr3A-197" value="&lt;div style=&quot;text-align: justify;&quot;&gt;&lt;span style=&quot;background-color: initial;&quot;&gt;RST_SW&lt;/span&gt;&lt;/div&gt;&lt;div style=&quot;text-align: justify;&quot;&gt;&lt;span style=&quot;font-size: 12px;&quot;&gt;&lt;br&gt;&lt;/span&gt;&lt;/div&gt;&lt;div style=&quot;text-align: justify;&quot;&gt;&lt;span style=&quot;background-color: initial;&quot;&gt;TC&lt;/span&gt;&lt;/div&gt;&lt;div style=&quot;text-align: justify;&quot;&gt;&lt;span style=&quot;font-size: 12px;&quot;&gt;&lt;br&gt;&lt;/span&gt;&lt;/div&gt;&lt;div style=&quot;text-align: justify;&quot;&gt;&lt;span style=&quot;background-color: initial;&quot;&gt;RB&lt;/span&gt;&lt;/div&gt;&lt;div style=&quot;text-align: justify;&quot;&gt;&lt;span style=&quot;font-size: 12px;&quot;&gt;&lt;br&gt;&lt;/span&gt;&lt;/div&gt;&lt;div style=&quot;text-align: justify;&quot;&gt;&lt;span style=&quot;background-color: initial;&quot;&gt;En0&lt;/span&gt;&lt;/div&gt;&lt;div style=&quot;text-align: justify;&quot;&gt;&lt;span style=&quot;background-color: initial;&quot;&gt;&lt;br&gt;&lt;/span&gt;&lt;/div&gt;&lt;div style=&quot;text-align: justify;&quot;&gt;&lt;span style=&quot;background-color: initial;&quot;&gt;bit_mode&lt;/span&gt;&lt;/div&gt;" style="text;html=1;strokeColor=none;fillColor=none;align=center;verticalAlign=middle;whiteSpace=wrap;rounded=0;" parent="1" vertex="1">
          <mxGeometry x="840" y="940" width="50" height="320" as="geometry" />
        </mxCell>
        <mxCell id="7T8Nrw3sL6te4_rMvr3A-198" value="RST&lt;br&gt;&lt;br&gt;RST_reg1&lt;br&gt;&lt;br&gt;RST_reg5&lt;br&gt;&lt;br&gt;RST_CNT&lt;br&gt;&lt;br&gt;LD&lt;br&gt;&lt;br&gt;SE&lt;br&gt;&lt;br&gt;En1&lt;br&gt;&lt;br&gt;En2_cu&lt;br&gt;&lt;br&gt;En3&lt;br&gt;&lt;br&gt;En4&lt;br&gt;&lt;br&gt;En5&lt;br&gt;&lt;br&gt;SB_IN&lt;br&gt;&lt;br&gt;s_mux&lt;br&gt;&lt;br&gt;s_crc" style="text;html=1;strokeColor=none;fillColor=none;align=right;verticalAlign=middle;whiteSpace=wrap;rounded=0;" parent="1" vertex="1">
          <mxGeometry x="930" y="940" width="70" height="420" as="geometry" />
        </mxCell>
        <mxCell id="7T8Nrw3sL6te4_rMvr3A-199" value="" style="triangle;whiteSpace=wrap;html=1;rotation=-90;" parent="1" vertex="1">
          <mxGeometry x="915" y="1350" width="10" height="10" as="geometry" />
        </mxCell>
        <mxCell id="7T8Nrw3sL6te4_rMvr3A-200" value="" style="rounded=0;whiteSpace=wrap;html=1;fillColor=#FFFFCC;" parent="1" vertex="1">
          <mxGeometry x="1280" y="1020" width="160" height="160" as="geometry" />
        </mxCell>
        <mxCell id="7T8Nrw3sL6te4_rMvr3A-201" value="COUNTER" style="text;html=1;strokeColor=none;fillColor=none;align=center;verticalAlign=middle;whiteSpace=wrap;rounded=0;" parent="1" vertex="1">
          <mxGeometry x="1280" y="1000" width="160" height="20" as="geometry" />
        </mxCell>
        <mxCell id="7T8Nrw3sL6te4_rMvr3A-202" value="&lt;div style=&quot;text-align: justify;&quot;&gt;&lt;span style=&quot;background-color: initial;&quot;&gt;CE&lt;/span&gt;&lt;/div&gt;&lt;div style=&quot;text-align: justify;&quot;&gt;&lt;span style=&quot;font-size: 12px;&quot;&gt;&lt;br&gt;&lt;/span&gt;&lt;/div&gt;&lt;div style=&quot;text-align: justify;&quot;&gt;&lt;span style=&quot;font-size: 12px;&quot;&gt;&lt;br&gt;&lt;/span&gt;&lt;/div&gt;&lt;div style=&quot;text-align: justify;&quot;&gt;&lt;span style=&quot;background-color: initial;&quot;&gt;RST&lt;/span&gt;&lt;/div&gt;" style="text;html=1;strokeColor=none;fillColor=none;align=center;verticalAlign=middle;whiteSpace=wrap;rounded=0;" parent="1" vertex="1">
          <mxGeometry x="1280" y="1020" width="30" height="160" as="geometry" />
        </mxCell>
        <mxCell id="7T8Nrw3sL6te4_rMvr3A-203" value="count" style="text;html=1;strokeColor=none;fillColor=none;align=center;verticalAlign=middle;whiteSpace=wrap;rounded=0;" parent="1" vertex="1">
          <mxGeometry x="1390" y="1020" width="50" height="160" as="geometry" />
        </mxCell>
        <mxCell id="7T8Nrw3sL6te4_rMvr3A-206" value="" style="endArrow=classic;html=1;rounded=0;strokeColor=#3333FF;" parent="1" edge="1">
          <mxGeometry width="50" height="50" relative="1" as="geometry">
            <mxPoint x="800" y="1130" as="sourcePoint" />
            <mxPoint x="840" y="1130" as="targetPoint" />
          </mxGeometry>
        </mxCell>
        <mxCell id="7T8Nrw3sL6te4_rMvr3A-208" value="" style="endArrow=classic;html=1;rounded=0;strokeColor=#3333FF;entryX=0;entryY=0.25;entryDx=0;entryDy=0;entryPerimeter=0;" parent="1" target="zgFCmv0UGNkScKTH35LV-67" edge="1">
          <mxGeometry width="50" height="50" relative="1" as="geometry">
            <mxPoint x="1440" y="1099.6399999999999" as="sourcePoint" />
            <mxPoint x="1480" y="1099.6399999999999" as="targetPoint" />
          </mxGeometry>
        </mxCell>
        <mxCell id="7T8Nrw3sL6te4_rMvr3A-209" value="" style="endArrow=classic;html=1;rounded=0;strokeColor=#3333FF;" parent="1" edge="1">
          <mxGeometry width="50" height="50" relative="1" as="geometry">
            <mxPoint x="1000" y="960" as="sourcePoint" />
            <mxPoint x="1040" y="960" as="targetPoint" />
            <Array as="points">
              <mxPoint x="1020" y="960" />
            </Array>
          </mxGeometry>
        </mxCell>
        <mxCell id="7T8Nrw3sL6te4_rMvr3A-210" value="" style="endArrow=classic;html=1;rounded=0;strokeColor=#3333FF;" parent="1" edge="1">
          <mxGeometry width="50" height="50" relative="1" as="geometry">
            <mxPoint x="1000" y="990" as="sourcePoint" />
            <mxPoint x="1040" y="990" as="targetPoint" />
          </mxGeometry>
        </mxCell>
        <mxCell id="7T8Nrw3sL6te4_rMvr3A-211" value="" style="endArrow=classic;html=1;rounded=0;strokeColor=#3333FF;" parent="1" edge="1">
          <mxGeometry width="50" height="50" relative="1" as="geometry">
            <mxPoint x="1000" y="1020" as="sourcePoint" />
            <mxPoint x="1040" y="1020" as="targetPoint" />
          </mxGeometry>
        </mxCell>
        <mxCell id="7T8Nrw3sL6te4_rMvr3A-212" value="" style="endArrow=classic;html=1;rounded=0;strokeColor=#3333FF;" parent="1" edge="1">
          <mxGeometry width="50" height="50" relative="1" as="geometry">
            <mxPoint x="1000" y="1050" as="sourcePoint" />
            <mxPoint x="1040" y="1050" as="targetPoint" />
            <Array as="points">
              <mxPoint x="1020" y="1050" />
            </Array>
          </mxGeometry>
        </mxCell>
        <mxCell id="7T8Nrw3sL6te4_rMvr3A-213" value="" style="endArrow=classic;html=1;rounded=0;strokeColor=#3333FF;" parent="1" edge="1">
          <mxGeometry width="50" height="50" relative="1" as="geometry">
            <mxPoint x="1000" y="1080" as="sourcePoint" />
            <mxPoint x="1040" y="1080" as="targetPoint" />
          </mxGeometry>
        </mxCell>
        <mxCell id="7T8Nrw3sL6te4_rMvr3A-214" value="" style="endArrow=classic;html=1;rounded=0;strokeColor=#3333FF;" parent="1" edge="1">
          <mxGeometry width="50" height="50" relative="1" as="geometry">
            <mxPoint x="1000" y="1110" as="sourcePoint" />
            <mxPoint x="1040" y="1110" as="targetPoint" />
          </mxGeometry>
        </mxCell>
        <mxCell id="7T8Nrw3sL6te4_rMvr3A-215" value="" style="endArrow=classic;html=1;rounded=0;strokeColor=#3333FF;" parent="1" edge="1">
          <mxGeometry width="50" height="50" relative="1" as="geometry">
            <mxPoint x="1000" y="1140" as="sourcePoint" />
            <mxPoint x="1040" y="1140" as="targetPoint" />
          </mxGeometry>
        </mxCell>
        <mxCell id="7T8Nrw3sL6te4_rMvr3A-216" value="" style="endArrow=classic;html=1;rounded=0;strokeColor=#3333FF;" parent="1" edge="1">
          <mxGeometry width="50" height="50" relative="1" as="geometry">
            <mxPoint x="1001" y="1160" as="sourcePoint" />
            <mxPoint x="1041" y="1160" as="targetPoint" />
          </mxGeometry>
        </mxCell>
        <mxCell id="7T8Nrw3sL6te4_rMvr3A-217" value="" style="endArrow=classic;html=1;rounded=0;strokeColor=#3333FF;" parent="1" edge="1">
          <mxGeometry width="50" height="50" relative="1" as="geometry">
            <mxPoint x="1001" y="1190" as="sourcePoint" />
            <mxPoint x="1041" y="1190" as="targetPoint" />
          </mxGeometry>
        </mxCell>
        <mxCell id="7T8Nrw3sL6te4_rMvr3A-218" value="" style="endArrow=classic;html=1;rounded=0;strokeColor=#3333FF;" parent="1" edge="1">
          <mxGeometry width="50" height="50" relative="1" as="geometry">
            <mxPoint x="1000" y="1220" as="sourcePoint" />
            <mxPoint x="1040" y="1220" as="targetPoint" />
          </mxGeometry>
        </mxCell>
        <mxCell id="7T8Nrw3sL6te4_rMvr3A-219" value="" style="endArrow=classic;html=1;rounded=0;strokeColor=#3333FF;" parent="1" edge="1">
          <mxGeometry width="50" height="50" relative="1" as="geometry">
            <mxPoint x="1240" y="1120" as="sourcePoint" />
            <mxPoint x="1280" y="1120" as="targetPoint" />
          </mxGeometry>
        </mxCell>
        <mxCell id="7T8Nrw3sL6te4_rMvr3A-220" value="" style="endArrow=classic;html=1;rounded=0;strokeColor=#3333FF;" parent="1" edge="1">
          <mxGeometry width="50" height="50" relative="1" as="geometry">
            <mxPoint x="1240" y="1080" as="sourcePoint" />
            <mxPoint x="1280" y="1080" as="targetPoint" />
          </mxGeometry>
        </mxCell>
        <mxCell id="7T8Nrw3sL6te4_rMvr3A-223" value="" style="endArrow=classic;html=1;rounded=0;strokeColor=#3333FF;" parent="1" edge="1">
          <mxGeometry width="50" height="50" relative="1" as="geometry">
            <mxPoint x="800" y="1099.95" as="sourcePoint" />
            <mxPoint x="840" y="1099.95" as="targetPoint" />
          </mxGeometry>
        </mxCell>
        <mxCell id="7T8Nrw3sL6te4_rMvr3A-224" value="" style="endArrow=classic;html=1;rounded=0;strokeColor=#3333FF;" parent="1" edge="1">
          <mxGeometry width="50" height="50" relative="1" as="geometry">
            <mxPoint x="800" y="1070" as="sourcePoint" />
            <mxPoint x="840" y="1070" as="targetPoint" />
          </mxGeometry>
        </mxCell>
        <mxCell id="7T8Nrw3sL6te4_rMvr3A-225" value="" style="triangle;whiteSpace=wrap;html=1;rotation=-90;" parent="1" vertex="1">
          <mxGeometry x="1355" y="1170" width="10" height="10" as="geometry" />
        </mxCell>
        <mxCell id="7T8Nrw3sL6te4_rMvr3A-227" value="" style="endArrow=classic;html=1;rounded=0;entryX=0.006;entryY=0.355;entryDx=0;entryDy=0;entryPerimeter=0;" parent="1" target="7T8Nrw3sL6te4_rMvr3A-83" edge="1">
          <mxGeometry width="50" height="50" relative="1" as="geometry">
            <mxPoint x="520" y="-140" as="sourcePoint" />
            <mxPoint x="570" y="-190" as="targetPoint" />
          </mxGeometry>
        </mxCell>
        <mxCell id="7T8Nrw3sL6te4_rMvr3A-228" value="" style="endArrow=classic;html=1;rounded=0;entryX=-0.001;entryY=0.842;entryDx=0;entryDy=0;entryPerimeter=0;" parent="1" target="7T8Nrw3sL6te4_rMvr3A-138" edge="1">
          <mxGeometry width="50" height="50" relative="1" as="geometry">
            <mxPoint x="640" y="-140" as="sourcePoint" />
            <mxPoint x="2190" y="370" as="targetPoint" />
            <Array as="points">
              <mxPoint x="650" y="800" />
              <mxPoint x="1920" y="800" />
              <mxPoint x="1920" y="350" />
            </Array>
          </mxGeometry>
        </mxCell>
        <mxCell id="7T8Nrw3sL6te4_rMvr3A-229" value="" style="endArrow=classic;html=1;rounded=0;entryX=-0.006;entryY=0.969;entryDx=0;entryDy=0;entryPerimeter=0;" parent="1" target="7T8Nrw3sL6te4_rMvr3A-138" edge="1">
          <mxGeometry width="50" height="50" relative="1" as="geometry">
            <mxPoint x="520" y="380" as="sourcePoint" />
            <mxPoint x="1998.44" y="350.0000000000001" as="targetPoint" />
            <Array as="points">
              <mxPoint x="600" y="380" />
              <mxPoint x="600" y="820" />
              <mxPoint x="1960" y="820" />
              <mxPoint x="1960" y="390" />
            </Array>
          </mxGeometry>
        </mxCell>
        <mxCell id="7T8Nrw3sL6te4_rMvr3A-230" style="edgeStyle=orthogonalEdgeStyle;rounded=0;orthogonalLoop=1;jettySize=auto;html=1;exitX=1.002;exitY=0.297;exitDx=0;exitDy=0;exitPerimeter=0;" parent="1" source="7T8Nrw3sL6te4_rMvr3A-138" edge="1">
          <mxGeometry relative="1" as="geometry">
            <Array as="points">
              <mxPoint x="2160" y="175" />
              <mxPoint x="2160" y="840" />
              <mxPoint x="560" y="840" />
              <mxPoint x="560" y="400" />
            </Array>
            <mxPoint x="2160" y="180" as="sourcePoint" />
            <mxPoint x="520" y="400" as="targetPoint" />
          </mxGeometry>
        </mxCell>
        <mxCell id="7T8Nrw3sL6te4_rMvr3A-231" value="" style="endArrow=classic;html=1;rounded=0;entryX=-0.014;entryY=0.315;entryDx=0;entryDy=0;entryPerimeter=0;" parent="1" target="7T8Nrw3sL6te4_rMvr3A-197" edge="1">
          <mxGeometry width="50" height="50" relative="1" as="geometry">
            <mxPoint x="520" y="1040" as="sourcePoint" />
            <mxPoint x="570" y="990" as="targetPoint" />
          </mxGeometry>
        </mxCell>
        <mxCell id="7T8Nrw3sL6te4_rMvr3A-232" value="DIN" style="text;html=1;strokeColor=none;fillColor=none;align=center;verticalAlign=middle;whiteSpace=wrap;rounded=0;" parent="1" vertex="1">
          <mxGeometry x="520" y="-400" width="30" height="20" as="geometry" />
        </mxCell>
        <mxCell id="7T8Nrw3sL6te4_rMvr3A-233" value="ADDRESS" style="text;html=1;strokeColor=none;fillColor=none;align=center;verticalAlign=middle;whiteSpace=wrap;rounded=0;" parent="1" vertex="1">
          <mxGeometry x="520" y="-160" width="70" height="20" as="geometry" />
        </mxCell>
        <mxCell id="7T8Nrw3sL6te4_rMvr3A-234" value="WR" style="text;html=1;strokeColor=none;fillColor=none;align=center;verticalAlign=middle;whiteSpace=wrap;rounded=0;" parent="1" vertex="1">
          <mxGeometry x="520" y="-120" width="30" height="20" as="geometry" />
        </mxCell>
        <mxCell id="7T8Nrw3sL6te4_rMvr3A-235" value="RD" style="text;html=1;strokeColor=none;fillColor=none;align=center;verticalAlign=middle;whiteSpace=wrap;rounded=0;" parent="1" vertex="1">
          <mxGeometry x="520" y="360" width="30" height="20" as="geometry" />
        </mxCell>
        <mxCell id="7T8Nrw3sL6te4_rMvr3A-236" value="DOUT" style="text;html=1;strokeColor=none;fillColor=none;align=center;verticalAlign=middle;whiteSpace=wrap;rounded=0;" parent="1" vertex="1">
          <mxGeometry x="520" y="400" width="40" height="20" as="geometry" />
        </mxCell>
        <mxCell id="7T8Nrw3sL6te4_rMvr3A-237" value="&lt;div style=&quot;text-align: justify;&quot;&gt;&lt;span style=&quot;background-color: initial;&quot;&gt;MOSI&lt;/span&gt;&lt;/div&gt;&lt;div style=&quot;text-align: justify;&quot;&gt;&lt;br&gt;&lt;/div&gt;&lt;div style=&quot;text-align: justify;&quot;&gt;&lt;br&gt;&lt;/div&gt;&lt;div style=&quot;text-align: justify;&quot;&gt;&lt;span style=&quot;background-color: initial;&quot;&gt;MISO&lt;/span&gt;&lt;/div&gt;&lt;div style=&quot;text-align: justify;&quot;&gt;&lt;br&gt;&lt;/div&gt;&lt;div style=&quot;text-align: justify;&quot;&gt;&lt;br&gt;&lt;/div&gt;&lt;div style=&quot;text-align: justify;&quot;&gt;&lt;span style=&quot;background-color: initial;&quot;&gt;SCK&lt;/span&gt;&lt;/div&gt;&lt;div style=&quot;text-align: justify;&quot;&gt;&lt;br&gt;&lt;/div&gt;&lt;div style=&quot;text-align: justify;&quot;&gt;&lt;br&gt;&lt;/div&gt;&lt;div style=&quot;text-align: justify;&quot;&gt;&lt;span style=&quot;background-color: initial;&quot;&gt;nSS&lt;/span&gt;&lt;/div&gt;" style="text;html=1;strokeColor=none;fillColor=none;align=center;verticalAlign=middle;whiteSpace=wrap;rounded=0;" parent="1" vertex="1">
          <mxGeometry x="80" y="-400" width="40" height="600" as="geometry" />
        </mxCell>
        <mxCell id="7T8Nrw3sL6te4_rMvr3A-243" style="edgeStyle=orthogonalEdgeStyle;rounded=0;orthogonalLoop=1;jettySize=auto;html=1;entryX=0;entryY=1;entryDx=0;entryDy=0;" parent="1" source="7T8Nrw3sL6te4_rMvr3A-242" target="7T8Nrw3sL6te4_rMvr3A-234" edge="1">
          <mxGeometry relative="1" as="geometry">
            <Array as="points">
              <mxPoint x="470" y="-100" />
              <mxPoint x="470" y="-100" />
            </Array>
          </mxGeometry>
        </mxCell>
        <mxCell id="7T8Nrw3sL6te4_rMvr3A-246" style="edgeStyle=orthogonalEdgeStyle;rounded=0;orthogonalLoop=1;jettySize=auto;html=1;entryX=0;entryY=1;entryDx=0;entryDy=0;" parent="1" source="7T8Nrw3sL6te4_rMvr3A-242" target="7T8Nrw3sL6te4_rMvr3A-235" edge="1">
          <mxGeometry relative="1" as="geometry">
            <Array as="points">
              <mxPoint x="420" y="-40" />
              <mxPoint x="420" y="380" />
            </Array>
          </mxGeometry>
        </mxCell>
        <mxCell id="7T8Nrw3sL6te4_rMvr3A-242" value="DIN&lt;br&gt;&lt;br&gt;&lt;br&gt;&lt;br&gt;ADDRESS&lt;br&gt;&lt;br&gt;&lt;br&gt;&lt;br&gt;WR&lt;br&gt;&lt;br&gt;&lt;br&gt;&lt;br&gt;RD&lt;br&gt;&lt;br&gt;&lt;br&gt;&lt;br&gt;DOUT" style="text;html=1;strokeColor=none;fillColor=none;align=right;verticalAlign=middle;whiteSpace=wrap;rounded=0;" parent="1" vertex="1">
          <mxGeometry x="260" y="-400" width="60" height="600" as="geometry" />
        </mxCell>
        <mxCell id="7T8Nrw3sL6te4_rMvr3A-245" style="edgeStyle=orthogonalEdgeStyle;rounded=0;orthogonalLoop=1;jettySize=auto;html=1;entryX=0;entryY=1;entryDx=0;entryDy=0;" parent="1" source="7T8Nrw3sL6te4_rMvr3A-64" target="7T8Nrw3sL6te4_rMvr3A-232" edge="1">
          <mxGeometry relative="1" as="geometry">
            <Array as="points">
              <mxPoint x="420" y="-210" />
              <mxPoint x="420" y="-380" />
            </Array>
          </mxGeometry>
        </mxCell>
        <mxCell id="7T8Nrw3sL6te4_rMvr3A-248" style="edgeStyle=orthogonalEdgeStyle;rounded=0;orthogonalLoop=1;jettySize=auto;html=1;entryX=0.992;entryY=0.693;entryDx=0;entryDy=0;entryPerimeter=0;" parent="1" target="7T8Nrw3sL6te4_rMvr3A-242" edge="1">
          <mxGeometry relative="1" as="geometry">
            <Array as="points">
              <mxPoint x="400" y="400" />
              <mxPoint x="400" y="16" />
            </Array>
            <mxPoint x="520" y="400" as="sourcePoint" />
          </mxGeometry>
        </mxCell>
        <mxCell id="7T8Nrw3sL6te4_rMvr3A-249" value="&lt;font style=&quot;font-size: 24px;&quot;&gt;BLOCCO CRC&lt;/font&gt;" style="text;html=1;strokeColor=none;fillColor=none;align=center;verticalAlign=middle;whiteSpace=wrap;rounded=0;" parent="1" vertex="1">
          <mxGeometry x="520" y="-560" width="1730" height="40" as="geometry" />
        </mxCell>
        <mxCell id="7T8Nrw3sL6te4_rMvr3A-250" value="" style="endArrow=classic;html=1;rounded=0;" parent="1" edge="1">
          <mxGeometry width="50" height="50" relative="1" as="geometry">
            <mxPoint x="40" y="-160.29999999999995" as="sourcePoint" />
            <mxPoint x="80" y="-160.29999999999995" as="targetPoint" />
          </mxGeometry>
        </mxCell>
        <mxCell id="7T8Nrw3sL6te4_rMvr3A-251" value="" style="endArrow=classic;html=1;rounded=0;" parent="1" edge="1">
          <mxGeometry width="50" height="50" relative="1" as="geometry">
            <mxPoint x="40" y="-79.99999999999994" as="sourcePoint" />
            <mxPoint x="80" y="-79.99999999999994" as="targetPoint" />
            <Array as="points">
              <mxPoint x="60" y="-79.69999999999999" />
            </Array>
          </mxGeometry>
        </mxCell>
        <mxCell id="7T8Nrw3sL6te4_rMvr3A-252" value="" style="endArrow=classic;html=1;rounded=0;" parent="1" edge="1">
          <mxGeometry width="50" height="50" relative="1" as="geometry">
            <mxPoint x="40" y="-30.299999999999955" as="sourcePoint" />
            <mxPoint x="80" y="-30.299999999999955" as="targetPoint" />
            <Array as="points">
              <mxPoint x="60" y="-30" />
            </Array>
          </mxGeometry>
        </mxCell>
        <mxCell id="7T8Nrw3sL6te4_rMvr3A-255" value="" style="endArrow=classic;html=1;rounded=0;" parent="1" edge="1">
          <mxGeometry width="50" height="50" relative="1" as="geometry">
            <mxPoint x="80" y="-120" as="sourcePoint" />
            <mxPoint x="40" y="-120" as="targetPoint" />
          </mxGeometry>
        </mxCell>
        <mxCell id="7T8Nrw3sL6te4_rMvr3A-257" style="edgeStyle=orthogonalEdgeStyle;rounded=0;orthogonalLoop=1;jettySize=auto;html=1;entryX=0;entryY=0.5;entryDx=0;entryDy=0;strokeColor=#3333FF;exitX=1;exitY=0.5;exitDx=0;exitDy=0;" parent="1" source="7T8Nrw3sL6te4_rMvr3A-256" target="7T8Nrw3sL6te4_rMvr3A-88" edge="1">
          <mxGeometry relative="1" as="geometry">
            <Array as="points">
              <mxPoint x="1140" y="-20" />
            </Array>
            <mxPoint x="1160" y="-20" as="sourcePoint" />
          </mxGeometry>
        </mxCell>
        <mxCell id="7T8Nrw3sL6te4_rMvr3A-258" style="edgeStyle=orthogonalEdgeStyle;rounded=0;orthogonalLoop=1;jettySize=auto;html=1;entryX=1;entryY=0.5;entryDx=0;entryDy=0;strokeColor=#3333FF;exitX=1;exitY=0.5;exitDx=0;exitDy=0;" parent="1" source="7T8Nrw3sL6te4_rMvr3A-256" target="7T8Nrw3sL6te4_rMvr3A-91" edge="1">
          <mxGeometry relative="1" as="geometry">
            <mxPoint x="1160" y="-20" as="sourcePoint" />
          </mxGeometry>
        </mxCell>
        <mxCell id="7T8Nrw3sL6te4_rMvr3A-256" value="s_mux" style="text;html=1;strokeColor=#3333FF;fillColor=none;align=center;verticalAlign=middle;whiteSpace=wrap;rounded=0;" parent="1" vertex="1">
          <mxGeometry x="1040" y="-30" width="40" height="20" as="geometry" />
        </mxCell>
        <mxCell id="n60EglObh9P4DY1axBTk-1" value="LOAD_1" style="swimlane;whiteSpace=wrap;html=1;" parent="1" vertex="1">
          <mxGeometry x="879.97" y="-1280" width="120" height="120" as="geometry" />
        </mxCell>
        <mxCell id="n60EglObh9P4DY1axBTk-2" value="LD =&amp;nbsp; 1&lt;br&gt;SB_IN = 0&lt;br&gt;En3 = 1&lt;br&gt;RST_CNT = 1&lt;br&gt;s_crc = 1" style="text;html=1;strokeColor=none;fillColor=none;align=center;verticalAlign=middle;whiteSpace=wrap;rounded=0;" parent="n60EglObh9P4DY1axBTk-1" vertex="1">
          <mxGeometry y="20" width="120" height="100" as="geometry" />
        </mxCell>
        <mxCell id="n60EglObh9P4DY1axBTk-4" value="SE = 1&lt;br&gt;CE = 1" style="text;html=1;strokeColor=none;fillColor=none;align=center;verticalAlign=middle;whiteSpace=wrap;rounded=0;" parent="1" vertex="1">
          <mxGeometry x="1039.97" y="-1260" width="120" height="100" as="geometry" />
        </mxCell>
        <mxCell id="n60EglObh9P4DY1axBTk-5" value="TC = 0" style="text;html=1;strokeColor=none;fillColor=none;align=center;verticalAlign=middle;whiteSpace=wrap;rounded=0;" parent="1" vertex="1">
          <mxGeometry x="1269.97" y="-1379.96" width="60" height="30" as="geometry" />
        </mxCell>
        <mxCell id="n60EglObh9P4DY1axBTk-6" value="SHIFT_1" style="swimlane;whiteSpace=wrap;html=1;" parent="1" vertex="1">
          <mxGeometry x="1039.97" y="-1280" width="120" height="120" as="geometry" />
        </mxCell>
        <mxCell id="n60EglObh9P4DY1axBTk-7" style="edgeStyle=orthogonalEdgeStyle;rounded=0;orthogonalLoop=1;jettySize=auto;html=1;entryX=0.5;entryY=0;entryDx=0;entryDy=0;" parent="n60EglObh9P4DY1axBTk-6" source="n60EglObh9P4DY1axBTk-8" target="n60EglObh9P4DY1axBTk-6" edge="1">
          <mxGeometry relative="1" as="geometry">
            <Array as="points">
              <mxPoint x="140" y="40" />
              <mxPoint x="140" y="-20" />
              <mxPoint x="60" y="-20" />
            </Array>
          </mxGeometry>
        </mxCell>
        <mxCell id="n60EglObh9P4DY1axBTk-8" value="SE = 1&lt;br&gt;CE = 1" style="text;html=1;strokeColor=none;fillColor=none;align=center;verticalAlign=middle;whiteSpace=wrap;rounded=0;" parent="n60EglObh9P4DY1axBTk-6" vertex="1">
          <mxGeometry y="20" width="120" height="100" as="geometry" />
        </mxCell>
        <mxCell id="n60EglObh9P4DY1axBTk-9" value="TC = 0" style="text;html=1;strokeColor=none;fillColor=none;align=center;verticalAlign=middle;whiteSpace=wrap;rounded=0;" parent="1" vertex="1">
          <mxGeometry x="1109.97" y="-1319.96" width="60" height="30" as="geometry" />
        </mxCell>
        <mxCell id="n60EglObh9P4DY1axBTk-13" value="En0 = 1&lt;br&gt;bit_mode = 1" style="text;html=1;strokeColor=none;fillColor=none;align=center;verticalAlign=middle;whiteSpace=wrap;rounded=0;" parent="1" vertex="1">
          <mxGeometry x="779.97" y="-1239.96" width="80" height="30" as="geometry" />
        </mxCell>
        <mxCell id="n60EglObh9P4DY1axBTk-14" style="edgeStyle=orthogonalEdgeStyle;rounded=0;orthogonalLoop=1;jettySize=auto;html=1;entryX=0;entryY=0.5;entryDx=0;entryDy=0;" parent="1" target="7T8Nrw3sL6te4_rMvr3A-40" edge="1">
          <mxGeometry relative="1" as="geometry">
            <mxPoint x="1159.97" y="-1410" as="sourcePoint" />
          </mxGeometry>
        </mxCell>
        <mxCell id="n60EglObh9P4DY1axBTk-15" style="edgeStyle=orthogonalEdgeStyle;rounded=0;orthogonalLoop=1;jettySize=auto;html=1;entryX=0;entryY=0.5;entryDx=0;entryDy=0;" parent="1" source="n60EglObh9P4DY1axBTk-2" target="n60EglObh9P4DY1axBTk-8" edge="1">
          <mxGeometry relative="1" as="geometry" />
        </mxCell>
        <mxCell id="n60EglObh9P4DY1axBTk-16" style="edgeStyle=orthogonalEdgeStyle;rounded=0;orthogonalLoop=1;jettySize=auto;html=1;entryX=0;entryY=0.608;entryDx=0;entryDy=0;entryPerimeter=0;" parent="1" source="n60EglObh9P4DY1axBTk-8" edge="1">
          <mxGeometry relative="1" as="geometry">
            <mxPoint x="1039.97" y="-1399.2" as="targetPoint" />
            <Array as="points">
              <mxPoint x="1239.97" y="-1209.96" />
              <mxPoint x="1239.97" y="-1329.96" />
              <mxPoint x="1019.97" y="-1329.96" />
              <mxPoint x="1019.97" y="-1399.96" />
              <mxPoint x="1039.97" y="-1399.96" />
            </Array>
          </mxGeometry>
        </mxCell>
        <mxCell id="n60EglObh9P4DY1axBTk-17" value="TC = 1" style="text;html=1;strokeColor=none;fillColor=none;align=center;verticalAlign=middle;whiteSpace=wrap;rounded=0;" parent="1" vertex="1">
          <mxGeometry x="1174.97" y="-1235" width="60" height="30" as="geometry" />
        </mxCell>
        <mxCell id="n60EglObh9P4DY1axBTk-21" value="REG_DATA" style="swimlane;whiteSpace=wrap;html=1;startSize=23;" parent="1" vertex="1">
          <mxGeometry x="1039.97" y="-1485" width="120" height="120" as="geometry" />
        </mxCell>
        <mxCell id="n60EglObh9P4DY1axBTk-22" value="En4 = 1" style="text;html=1;strokeColor=none;fillColor=none;align=center;verticalAlign=middle;whiteSpace=wrap;rounded=0;" parent="n60EglObh9P4DY1axBTk-21" vertex="1">
          <mxGeometry y="20" width="120" height="100" as="geometry" />
        </mxCell>
        <mxCell id="zgFCmv0UGNkScKTH35LV-4" value="" style="rounded=0;whiteSpace=wrap;html=1;" parent="1" vertex="1">
          <mxGeometry x="1320" y="400" width="120" height="120" as="geometry" />
        </mxCell>
        <mxCell id="zgFCmv0UGNkScKTH35LV-5" value="&lt;div style=&quot;text-align: justify;&quot;&gt;&lt;span style=&quot;background-color: initial;&quot;&gt;D&lt;span style=&quot;white-space: pre;&quot;&gt;&#x9;&lt;/span&gt;&lt;span style=&quot;white-space: pre;&quot;&gt;&#x9;&lt;/span&gt;&lt;span style=&quot;white-space: pre;&quot;&gt;&#x9;&lt;span style=&quot;white-space: pre;&quot;&gt;&#x9;&lt;/span&gt;&lt;/span&gt;&lt;/span&gt;&lt;span style=&quot;background-color: initial;&quot;&gt;Q&lt;/span&gt;&lt;/div&gt;&lt;div style=&quot;text-align: justify;&quot;&gt;&lt;span style=&quot;font-size: 12px;&quot;&gt;&lt;br&gt;&lt;/span&gt;&lt;/div&gt;&lt;div style=&quot;text-align: justify;&quot;&gt;&lt;span style=&quot;font-size: 12px;&quot;&gt;&lt;br&gt;&lt;/span&gt;&lt;/div&gt;&lt;div style=&quot;text-align: justify;&quot;&gt;&lt;span style=&quot;background-color: initial;&quot;&gt;EN&lt;/span&gt;&lt;/div&gt;&lt;div style=&quot;text-align: justify;&quot;&gt;&lt;span style=&quot;font-size: 12px;&quot;&gt;&lt;br&gt;&lt;/span&gt;&lt;/div&gt;&lt;div style=&quot;text-align: justify;&quot;&gt;&lt;span style=&quot;font-size: 12px;&quot;&gt;&lt;br&gt;&lt;/span&gt;&lt;/div&gt;&lt;div style=&quot;text-align: justify;&quot;&gt;&lt;span style=&quot;background-color: initial;&quot;&gt;RST&lt;/span&gt;&lt;/div&gt;" style="text;html=1;strokeColor=none;fillColor=#66FFFF;align=center;verticalAlign=middle;whiteSpace=wrap;rounded=0;" parent="1" vertex="1">
          <mxGeometry x="1320" y="400" width="120" height="120" as="geometry" />
        </mxCell>
        <mxCell id="zgFCmv0UGNkScKTH35LV-6" value="" style="triangle;whiteSpace=wrap;html=1;rotation=-90;" parent="1" vertex="1">
          <mxGeometry x="1375" y="510" width="10" height="10" as="geometry" />
        </mxCell>
        <mxCell id="zgFCmv0UGNkScKTH35LV-7" style="edgeStyle=orthogonalEdgeStyle;rounded=0;orthogonalLoop=1;jettySize=auto;html=1;entryX=0;entryY=0.5;entryDx=0;entryDy=0;strokeColor=#3333FF;" parent="1" source="zgFCmv0UGNkScKTH35LV-8" edge="1">
          <mxGeometry relative="1" as="geometry">
            <mxPoint x="1319.99" y="460" as="targetPoint" />
            <Array as="points">
              <mxPoint x="1320" y="460" />
            </Array>
          </mxGeometry>
        </mxCell>
        <mxCell id="zgFCmv0UGNkScKTH35LV-8" value="En4" style="text;html=1;strokeColor=#3333FF;fillColor=none;align=center;verticalAlign=middle;whiteSpace=wrap;rounded=0;" parent="1" vertex="1">
          <mxGeometry x="1269.99" y="450" width="30" height="20" as="geometry" />
        </mxCell>
        <mxCell id="zgFCmv0UGNkScKTH35LV-9" style="edgeStyle=orthogonalEdgeStyle;rounded=0;orthogonalLoop=1;jettySize=auto;html=1;entryX=0;entryY=0.5;entryDx=0;entryDy=0;strokeColor=#3333FF;" parent="1" edge="1">
          <mxGeometry relative="1" as="geometry">
            <mxPoint x="1320" y="509.85" as="targetPoint" />
            <mxPoint x="1299.99" y="509.85" as="sourcePoint" />
            <Array as="points">
              <mxPoint x="1319.99" y="509.85" />
            </Array>
          </mxGeometry>
        </mxCell>
        <mxCell id="zgFCmv0UGNkScKTH35LV-10" value="RST" style="text;html=1;strokeColor=#3333FF;fillColor=none;align=center;verticalAlign=middle;whiteSpace=wrap;rounded=0;" parent="1" vertex="1">
          <mxGeometry x="1269.99" y="500" width="30" height="20" as="geometry" />
        </mxCell>
        <mxCell id="zgFCmv0UGNkScKTH35LV-11" value="REGISTRO 4" style="text;html=1;strokeColor=none;fillColor=none;align=center;verticalAlign=middle;whiteSpace=wrap;rounded=0;" parent="1" vertex="1">
          <mxGeometry x="1320" y="380" width="120" height="30" as="geometry" />
        </mxCell>
        <mxCell id="zgFCmv0UGNkScKTH35LV-12" value="" style="rounded=0;whiteSpace=wrap;html=1;" parent="1" vertex="1">
          <mxGeometry x="1320" y="600" width="120" height="120" as="geometry" />
        </mxCell>
        <mxCell id="zgFCmv0UGNkScKTH35LV-21" style="edgeStyle=orthogonalEdgeStyle;rounded=0;orthogonalLoop=1;jettySize=auto;html=1;exitX=1;exitY=0.159;exitDx=0;exitDy=0;exitPerimeter=0;" parent="1" edge="1">
          <mxGeometry relative="1" as="geometry">
            <mxPoint x="1240" y="619.9" as="targetPoint" />
            <mxPoint x="1440" y="619.9799999999999" as="sourcePoint" />
            <Array as="points">
              <mxPoint x="1520" y="620" />
              <mxPoint x="1520" y="561" />
              <mxPoint x="1240" y="561" />
            </Array>
          </mxGeometry>
        </mxCell>
        <mxCell id="zgFCmv0UGNkScKTH35LV-43" style="edgeStyle=orthogonalEdgeStyle;rounded=0;orthogonalLoop=1;jettySize=auto;html=1;entryX=0;entryY=0.699;entryDx=0;entryDy=0;entryPerimeter=0;" parent="1" source="zgFCmv0UGNkScKTH35LV-13" target="7T8Nrw3sL6te4_rMvr3A-138" edge="1">
          <mxGeometry relative="1" as="geometry">
            <mxPoint x="1750.7407633463542" y="340" as="targetPoint" />
            <Array as="points">
              <mxPoint x="1880" y="620" />
              <mxPoint x="1880" y="304" />
            </Array>
          </mxGeometry>
        </mxCell>
        <mxCell id="zgFCmv0UGNkScKTH35LV-13" value="&lt;div style=&quot;text-align: justify;&quot;&gt;&lt;span style=&quot;background-color: initial;&quot;&gt;D&lt;span style=&quot;white-space: pre;&quot;&gt;&#x9;&lt;/span&gt;&lt;span style=&quot;white-space: pre;&quot;&gt;&#x9;&lt;/span&gt;&lt;span style=&quot;white-space: pre;&quot;&gt;&#x9;&lt;span style=&quot;white-space: pre;&quot;&gt;&#x9;&lt;/span&gt;&lt;/span&gt;&lt;/span&gt;&lt;span style=&quot;background-color: initial;&quot;&gt;Q&lt;/span&gt;&lt;/div&gt;&lt;div style=&quot;text-align: justify;&quot;&gt;&lt;span style=&quot;font-size: 12px;&quot;&gt;&lt;br&gt;&lt;/span&gt;&lt;/div&gt;&lt;div style=&quot;text-align: justify;&quot;&gt;&lt;span style=&quot;font-size: 12px;&quot;&gt;&lt;br&gt;&lt;/span&gt;&lt;/div&gt;&lt;div style=&quot;text-align: justify;&quot;&gt;&lt;span style=&quot;background-color: initial;&quot;&gt;EN&lt;/span&gt;&lt;/div&gt;&lt;div style=&quot;text-align: justify;&quot;&gt;&lt;span style=&quot;font-size: 12px;&quot;&gt;&lt;br&gt;&lt;/span&gt;&lt;/div&gt;&lt;div style=&quot;text-align: justify;&quot;&gt;&lt;span style=&quot;font-size: 12px;&quot;&gt;&lt;br&gt;&lt;/span&gt;&lt;/div&gt;&lt;div style=&quot;text-align: justify;&quot;&gt;&lt;span style=&quot;background-color: initial;&quot;&gt;RST&lt;/span&gt;&lt;/div&gt;" style="text;html=1;strokeColor=none;fillColor=#66FFFF;align=center;verticalAlign=middle;whiteSpace=wrap;rounded=0;" parent="1" vertex="1">
          <mxGeometry x="1320" y="600" width="120" height="120" as="geometry" />
        </mxCell>
        <mxCell id="zgFCmv0UGNkScKTH35LV-14" value="" style="triangle;whiteSpace=wrap;html=1;rotation=-90;" parent="1" vertex="1">
          <mxGeometry x="1375" y="710" width="10" height="10" as="geometry" />
        </mxCell>
        <mxCell id="zgFCmv0UGNkScKTH35LV-15" style="edgeStyle=orthogonalEdgeStyle;rounded=0;orthogonalLoop=1;jettySize=auto;html=1;entryX=0;entryY=0.5;entryDx=0;entryDy=0;strokeColor=#3333FF;" parent="1" source="zgFCmv0UGNkScKTH35LV-16" edge="1">
          <mxGeometry relative="1" as="geometry">
            <mxPoint x="1319.99" y="660" as="targetPoint" />
            <Array as="points">
              <mxPoint x="1320" y="660" />
            </Array>
          </mxGeometry>
        </mxCell>
        <mxCell id="zgFCmv0UGNkScKTH35LV-16" value="En5" style="text;html=1;strokeColor=#3333FF;fillColor=none;align=center;verticalAlign=middle;whiteSpace=wrap;rounded=0;" parent="1" vertex="1">
          <mxGeometry x="1269.99" y="650" width="30" height="20" as="geometry" />
        </mxCell>
        <mxCell id="zgFCmv0UGNkScKTH35LV-17" style="edgeStyle=orthogonalEdgeStyle;rounded=0;orthogonalLoop=1;jettySize=auto;html=1;entryX=0;entryY=0.5;entryDx=0;entryDy=0;strokeColor=#3333FF;" parent="1" edge="1">
          <mxGeometry relative="1" as="geometry">
            <mxPoint x="1320" y="709.85" as="targetPoint" />
            <mxPoint x="1299.99" y="709.85" as="sourcePoint" />
            <Array as="points">
              <mxPoint x="1319.99" y="709.85" />
            </Array>
          </mxGeometry>
        </mxCell>
        <mxCell id="zgFCmv0UGNkScKTH35LV-19" value="REGISTRO 5" style="text;html=1;strokeColor=none;fillColor=none;align=center;verticalAlign=middle;whiteSpace=wrap;rounded=0;" parent="1" vertex="1">
          <mxGeometry x="1320" y="580" width="120" height="30" as="geometry" />
        </mxCell>
        <mxCell id="zgFCmv0UGNkScKTH35LV-20" value="RST_reg5" style="text;html=1;strokeColor=#3333FF;fillColor=none;align=center;verticalAlign=middle;whiteSpace=wrap;rounded=0;" parent="1" vertex="1">
          <mxGeometry x="1240" y="700" width="59.99" height="20" as="geometry" />
        </mxCell>
        <mxCell id="zgFCmv0UGNkScKTH35LV-23" value="" style="endArrow=classic;html=1;rounded=0;entryX=-0.017;entryY=0.166;entryDx=0;entryDy=0;entryPerimeter=0;exitX=1;exitY=0.5;exitDx=0;exitDy=0;" parent="1" source="zgFCmv0UGNkScKTH35LV-33" target="zgFCmv0UGNkScKTH35LV-13" edge="1">
          <mxGeometry width="50" height="50" relative="1" as="geometry">
            <mxPoint x="1160" y="620" as="sourcePoint" />
            <mxPoint x="1250" y="570" as="targetPoint" />
          </mxGeometry>
        </mxCell>
        <mxCell id="zgFCmv0UGNkScKTH35LV-24" value="" style="endArrow=none;html=1;rounded=0;" parent="1" edge="1">
          <mxGeometry width="50" height="50" relative="1" as="geometry">
            <mxPoint x="1259" y="630" as="sourcePoint" />
            <mxPoint x="1279" y="610" as="targetPoint" />
          </mxGeometry>
        </mxCell>
        <mxCell id="zgFCmv0UGNkScKTH35LV-25" value="16&lt;br&gt;" style="text;html=1;strokeColor=none;fillColor=none;align=center;verticalAlign=middle;whiteSpace=wrap;rounded=0;" parent="1" vertex="1">
          <mxGeometry x="1249" y="620" width="60" height="20" as="geometry" />
        </mxCell>
        <mxCell id="zgFCmv0UGNkScKTH35LV-26" value="" style="endArrow=none;html=1;rounded=0;" parent="1" edge="1">
          <mxGeometry width="50" height="50" relative="1" as="geometry">
            <mxPoint x="1260" y="570" as="sourcePoint" />
            <mxPoint x="1280" y="550" as="targetPoint" />
          </mxGeometry>
        </mxCell>
        <mxCell id="zgFCmv0UGNkScKTH35LV-27" value="15" style="text;html=1;strokeColor=none;fillColor=none;align=center;verticalAlign=middle;whiteSpace=wrap;rounded=0;" parent="1" vertex="1">
          <mxGeometry x="1250" y="560" width="60" height="20" as="geometry" />
        </mxCell>
        <mxCell id="zgFCmv0UGNkScKTH35LV-31" value="" style="endArrow=none;html=1;rounded=0;" parent="1" edge="1">
          <mxGeometry width="50" height="50" relative="1" as="geometry">
            <mxPoint x="1510" y="660" as="sourcePoint" />
            <mxPoint x="1530" y="640" as="targetPoint" />
          </mxGeometry>
        </mxCell>
        <mxCell id="zgFCmv0UGNkScKTH35LV-33" value="1" style="text;html=1;strokeColor=none;fillColor=none;align=center;verticalAlign=middle;whiteSpace=wrap;rounded=0;" parent="1" vertex="1">
          <mxGeometry x="1110" y="610" width="20" height="20" as="geometry" />
        </mxCell>
        <mxCell id="zgFCmv0UGNkScKTH35LV-35" value="1 (LSB)" style="text;html=1;strokeColor=none;fillColor=none;align=center;verticalAlign=middle;whiteSpace=wrap;rounded=0;" parent="1" vertex="1">
          <mxGeometry x="1510" y="650" width="59.5" height="20" as="geometry" />
        </mxCell>
        <mxCell id="zgFCmv0UGNkScKTH35LV-36" value="" style="endArrow=none;html=1;rounded=0;" parent="1" edge="1">
          <mxGeometry width="50" height="50" relative="1" as="geometry">
            <mxPoint x="1150" y="630" as="sourcePoint" />
            <mxPoint x="1170" y="610" as="targetPoint" />
          </mxGeometry>
        </mxCell>
        <mxCell id="zgFCmv0UGNkScKTH35LV-37" value="1 (LSB)" style="text;html=1;strokeColor=none;fillColor=none;align=center;verticalAlign=middle;whiteSpace=wrap;rounded=0;" parent="1" vertex="1">
          <mxGeometry x="1150" y="620" width="59.5" height="20" as="geometry" />
        </mxCell>
        <mxCell id="zgFCmv0UGNkScKTH35LV-38" value="bit_mode" style="text;html=1;strokeColor=#3333FF;fillColor=none;align=center;verticalAlign=middle;whiteSpace=wrap;rounded=0;" parent="1" vertex="1">
          <mxGeometry x="1485" y="680" width="70" height="20" as="geometry" />
        </mxCell>
        <mxCell id="zgFCmv0UGNkScKTH35LV-39" value="" style="endArrow=classic;html=1;rounded=0;entryX=0;entryY=0.5;entryDx=0;entryDy=0;fillColor=#3333FF;strokeColor=#3333FF;" parent="1" edge="1">
          <mxGeometry width="50" height="50" relative="1" as="geometry">
            <mxPoint x="1520" y="620" as="sourcePoint" />
            <mxPoint x="1520" y="680" as="targetPoint" />
          </mxGeometry>
        </mxCell>
        <mxCell id="zgFCmv0UGNkScKTH35LV-42" style="edgeStyle=orthogonalEdgeStyle;rounded=0;orthogonalLoop=1;jettySize=auto;html=1;entryX=-0.013;entryY=0.562;entryDx=0;entryDy=0;entryPerimeter=0;exitX=1.027;exitY=0.166;exitDx=0;exitDy=0;exitPerimeter=0;strokeColor=#00CC00;" parent="1" source="zgFCmv0UGNkScKTH35LV-5" target="7T8Nrw3sL6te4_rMvr3A-138" edge="1">
          <mxGeometry relative="1" as="geometry">
            <mxPoint x="1440" y="410" as="sourcePoint" />
            <mxPoint x="1978.7999999999997" y="249.5100000000002" as="targetPoint" />
            <Array as="points">
              <mxPoint x="1840" y="420" />
              <mxPoint x="1840" y="260" />
            </Array>
          </mxGeometry>
        </mxCell>
        <mxCell id="zgFCmv0UGNkScKTH35LV-44" value="" style="endArrow=none;html=1;rounded=0;" parent="1" edge="1">
          <mxGeometry width="50" height="50" relative="1" as="geometry">
            <mxPoint x="1470" y="630" as="sourcePoint" />
            <mxPoint x="1490" y="610" as="targetPoint" />
          </mxGeometry>
        </mxCell>
        <mxCell id="zgFCmv0UGNkScKTH35LV-45" value="16&lt;br&gt;" style="text;html=1;strokeColor=none;fillColor=none;align=center;verticalAlign=middle;whiteSpace=wrap;rounded=0;" parent="1" vertex="1">
          <mxGeometry x="1460" y="620" width="60" height="20" as="geometry" />
        </mxCell>
        <mxCell id="zgFCmv0UGNkScKTH35LV-46" value="" style="endArrow=none;html=1;rounded=0;" parent="1" edge="1">
          <mxGeometry width="50" height="50" relative="1" as="geometry">
            <mxPoint x="1550" y="630" as="sourcePoint" />
            <mxPoint x="1570" y="610" as="targetPoint" />
          </mxGeometry>
        </mxCell>
        <mxCell id="zgFCmv0UGNkScKTH35LV-47" value="16&lt;br&gt;" style="text;html=1;strokeColor=none;fillColor=none;align=center;verticalAlign=middle;whiteSpace=wrap;rounded=0;" parent="1" vertex="1">
          <mxGeometry x="1540" y="620" width="60" height="20" as="geometry" />
        </mxCell>
        <mxCell id="zgFCmv0UGNkScKTH35LV-51" value="" style="endArrow=none;html=1;rounded=0;" parent="1" edge="1">
          <mxGeometry width="50" height="50" relative="1" as="geometry">
            <mxPoint x="1510" y="430" as="sourcePoint" />
            <mxPoint x="1530" y="410" as="targetPoint" />
          </mxGeometry>
        </mxCell>
        <mxCell id="zgFCmv0UGNkScKTH35LV-52" value="16&lt;br&gt;" style="text;html=1;strokeColor=none;fillColor=none;align=center;verticalAlign=middle;whiteSpace=wrap;rounded=0;" parent="1" vertex="1">
          <mxGeometry x="1500" y="420" width="60" height="20" as="geometry" />
        </mxCell>
        <mxCell id="zgFCmv0UGNkScKTH35LV-54" style="edgeStyle=orthogonalEdgeStyle;rounded=0;orthogonalLoop=1;jettySize=auto;html=1;entryX=0;entryY=0.5;entryDx=0;entryDy=0;strokeColor=#3333FF;" parent="1" edge="1">
          <mxGeometry relative="1" as="geometry">
            <mxPoint x="1640" y="-300.15" as="targetPoint" />
            <mxPoint x="1619.99" y="-300.15" as="sourcePoint" />
            <Array as="points">
              <mxPoint x="1639.99" y="-300.15" />
            </Array>
          </mxGeometry>
        </mxCell>
        <mxCell id="zgFCmv0UGNkScKTH35LV-55" value="s_crc" style="text;html=1;strokeColor=#3333FF;fillColor=none;align=center;verticalAlign=middle;whiteSpace=wrap;rounded=0;" parent="1" vertex="1">
          <mxGeometry x="1580" y="-310" width="39.99" height="20" as="geometry" />
        </mxCell>
        <mxCell id="zgFCmv0UGNkScKTH35LV-56" value="" style="endArrow=classic;html=1;rounded=0;entryX=-0.002;entryY=0.126;entryDx=0;entryDy=0;entryPerimeter=0;strokeColor=#00CC00;" parent="1" target="7T8Nrw3sL6te4_rMvr3A-98" edge="1">
          <mxGeometry width="50" height="50" relative="1" as="geometry">
            <mxPoint x="1840" y="420" as="sourcePoint" />
            <mxPoint x="2060" y="-170" as="targetPoint" />
            <Array as="points">
              <mxPoint x="2200" y="420" />
              <mxPoint x="2200" y="-480" />
              <mxPoint x="1600" y="-480" />
              <mxPoint x="1560" y="-480" />
              <mxPoint x="1560" y="-420" />
            </Array>
          </mxGeometry>
        </mxCell>
        <mxCell id="zgFCmv0UGNkScKTH35LV-58" value="" style="endArrow=classic;html=1;rounded=0;strokeColor=#3333FF;" parent="1" edge="1">
          <mxGeometry width="50" height="50" relative="1" as="geometry">
            <mxPoint x="1000" y="1249.8" as="sourcePoint" />
            <mxPoint x="1040" y="1249.8" as="targetPoint" />
          </mxGeometry>
        </mxCell>
        <mxCell id="zgFCmv0UGNkScKTH35LV-59" value="" style="endArrow=classic;html=1;rounded=0;strokeColor=#3333FF;" parent="1" edge="1">
          <mxGeometry width="50" height="50" relative="1" as="geometry">
            <mxPoint x="1000" y="1280" as="sourcePoint" />
            <mxPoint x="1040" y="1280" as="targetPoint" />
          </mxGeometry>
        </mxCell>
        <mxCell id="zgFCmv0UGNkScKTH35LV-60" value="" style="endArrow=classic;html=1;rounded=0;strokeColor=#3333FF;" parent="1" edge="1">
          <mxGeometry width="50" height="50" relative="1" as="geometry">
            <mxPoint x="1000" y="1310" as="sourcePoint" />
            <mxPoint x="1040" y="1310" as="targetPoint" />
          </mxGeometry>
        </mxCell>
        <mxCell id="zgFCmv0UGNkScKTH35LV-61" value="" style="endArrow=classic;html=1;rounded=0;strokeColor=#3333FF;" parent="1" edge="1">
          <mxGeometry width="50" height="50" relative="1" as="geometry">
            <mxPoint x="800" y="1160" as="sourcePoint" />
            <mxPoint x="840" y="1160" as="targetPoint" />
          </mxGeometry>
        </mxCell>
        <mxCell id="zgFCmv0UGNkScKTH35LV-66" value="" style="endArrow=classic;html=1;rounded=0;strokeColor=#3333FF;" parent="1" edge="1">
          <mxGeometry width="50" height="50" relative="1" as="geometry">
            <mxPoint x="1000" y="1340" as="sourcePoint" />
            <mxPoint x="1040" y="1340" as="targetPoint" />
          </mxGeometry>
        </mxCell>
        <mxCell id="zgFCmv0UGNkScKTH35LV-67" value="" style="shape=or;whiteSpace=wrap;html=1;fillColor=#999999;" parent="1" vertex="1">
          <mxGeometry x="1640" y="1080" width="60" height="80" as="geometry" />
        </mxCell>
        <mxCell id="zgFCmv0UGNkScKTH35LV-68" value="" style="endArrow=classic;html=1;rounded=0;strokeColor=#3333FF;" parent="1" target="zgFCmv0UGNkScKTH35LV-69" edge="1">
          <mxGeometry width="50" height="50" relative="1" as="geometry">
            <mxPoint x="1600" y="1140" as="sourcePoint" />
            <mxPoint x="1640" y="1140" as="targetPoint" />
          </mxGeometry>
        </mxCell>
        <mxCell id="zgFCmv0UGNkScKTH35LV-69" value="&quot;1111&quot;" style="text;html=1;strokeColor=none;fillColor=none;align=center;verticalAlign=middle;whiteSpace=wrap;rounded=0;" parent="1" vertex="1">
          <mxGeometry x="1560" y="1120" width="40" height="40" as="geometry" />
        </mxCell>
        <mxCell id="zgFCmv0UGNkScKTH35LV-70" style="edgeStyle=orthogonalEdgeStyle;rounded=0;orthogonalLoop=1;jettySize=auto;html=1;entryX=0;entryY=0.75;entryDx=0;entryDy=0;entryPerimeter=0;strokeColor=#3333FF;" parent="1" source="zgFCmv0UGNkScKTH35LV-69" target="zgFCmv0UGNkScKTH35LV-67" edge="1">
          <mxGeometry relative="1" as="geometry" />
        </mxCell>
        <mxCell id="zgFCmv0UGNkScKTH35LV-71" style="edgeStyle=orthogonalEdgeStyle;rounded=0;orthogonalLoop=1;jettySize=auto;html=1;entryX=0;entryY=0.75;entryDx=0;entryDy=0;entryPerimeter=0;strokeColor=#3333FF;" parent="1" edge="1">
          <mxGeometry relative="1" as="geometry">
            <mxPoint x="1700" y="1120" as="sourcePoint" />
            <mxPoint x="1740" y="1120" as="targetPoint" />
          </mxGeometry>
        </mxCell>
        <mxCell id="zgFCmv0UGNkScKTH35LV-72" value="TC" style="text;html=1;strokeColor=#3333FF;fillColor=none;align=center;verticalAlign=middle;whiteSpace=wrap;rounded=0;" parent="1" vertex="1">
          <mxGeometry x="1740" y="1110" width="40" height="20" as="geometry" />
        </mxCell>
        <mxCell id="zgFCmv0UGNkScKTH35LV-73" value="" style="endArrow=classic;html=1;rounded=0;" parent="1" target="zgFCmv0UGNkScKTH35LV-74" edge="1">
          <mxGeometry width="50" height="50" relative="1" as="geometry">
            <mxPoint x="440" y="1040" as="sourcePoint" />
            <mxPoint x="520" y="1040" as="targetPoint" />
          </mxGeometry>
        </mxCell>
        <mxCell id="zgFCmv0UGNkScKTH35LV-75" style="edgeStyle=orthogonalEdgeStyle;rounded=0;orthogonalLoop=1;jettySize=auto;html=1;" parent="1" source="zgFCmv0UGNkScKTH35LV-74" edge="1">
          <mxGeometry relative="1" as="geometry">
            <mxPoint x="520" y="1040" as="targetPoint" />
          </mxGeometry>
        </mxCell>
        <mxCell id="zgFCmv0UGNkScKTH35LV-74" value="RST esterno" style="text;html=1;strokeColor=none;fillColor=none;align=center;verticalAlign=middle;whiteSpace=wrap;rounded=0;" parent="1" vertex="1">
          <mxGeometry x="380" y="1020" width="60" height="40" as="geometry" />
        </mxCell>
      </root>
    </mxGraphModel>
  </diagram>
</mxfile>
